<?xml version="1.0" standalone="no"?>
<!DOCTYPE svg PUBLIC "-//W3C//DTD SVG 20010904//EN"
 "http://www.w3.org/TR/2001/REC-SVG-20010904/DTD/svg10.dtd">
<svg version="1.0" xmlns="http://www.w3.org/2000/svg"
 width="1024.000000pt" height="1024.000000pt" viewBox="0 0 1024.000000 1024.000000"
 preserveAspectRatio="xMidYMid meet">

<g transform="translate(0.000000,1024.000000) scale(0.100000,-0.100000)"
fill="#000000" stroke="none">
<path d="M0 7550 l0 -2690 21 0 c15 0 19 5 15 15 -3 8 1 18 8 22 7 5 15 16 19
25 5 15 11 16 32 8 38 -14 65 -12 65 5 0 12 -8 14 -40 9 -27 -4 -40 -3 -40 5
0 6 7 11 15 11 8 0 15 6 15 14 0 8 7 16 15 20 8 3 15 12 15 20 0 9 12 22 27
30 16 8 24 15 18 16 -5 0 -11 14 -12 30 -2 23 2 30 17 30 10 0 27 11 38 25 21
26 32 24 32 -7 0 -11 7 -18 20 -18 11 0 20 7 20 15 0 8 5 24 12 35 15 23 4 37
-16 21 -23 -19 -36 -5 -23 24 8 17 18 24 29 21 15 -3 18 3 18 35 0 21 -5 39
-11 39 -5 0 -7 5 -3 11 5 8 10 6 16 -5 15 -26 38 -19 44 14 4 17 11 30 17 30
13 0 67 56 67 70 0 5 -4 10 -10 10 -5 0 -10 5 -10 10 0 16 32 11 47 -7 8 -10
12 -13 9 -7 -3 7 1 14 9 18 19 7 19 26 0 26 -23 0 -18 13 16 43 34 29 49 34
49 15 0 -9 3 -9 12 0 9 9 5 17 -15 36 -24 22 -25 24 -6 29 12 3 17 1 12 -6 -4
-7 0 -8 11 -4 10 4 29 7 42 7 15 0 24 6 24 15 0 8 -6 15 -13 15 -7 0 -18 13
-24 29 -9 24 -8 31 4 35 27 11 33 6 33 -24 0 -34 11 -38 36 -13 15 16 15 17 0
23 -15 5 -13 10 11 35 27 29 28 30 31 8 2 -13 9 -23 16 -23 23 0 26 13 9 33
-14 16 -15 21 -5 25 10 3 6 12 -13 32 l-27 28 30 -2 c31 -3 76 -41 67 -56 -4
-6 -4 -10 -1 -10 7 0 36 61 36 78 0 12 -3 12 -15 2 -12 -10 -15 -10 -15 0 0 7
-7 10 -15 6 -28 -10 -16 23 14 39 29 15 30 14 53 -23 l23 -37 3 30 c2 17 10
34 18 38 8 4 14 15 14 22 0 8 7 15 15 15 11 0 15 11 15 41 0 41 1 41 30 36 30
-6 30 -6 30 38 0 33 -4 45 -17 48 -10 2 0 3 22 1 22 -2 34 -1 28 2 -19 8 -16
27 3 20 19 -7 84 14 84 27 0 5 -17 7 -39 3 l-39 -6 29 31 c31 33 35 44 19 54
-25 15 -8 26 30 20 36 -6 40 -5 40 14 0 11 8 25 18 31 12 8 13 13 5 16 -23 10
-14 51 19 88 17 20 37 36 42 36 13 0 36 68 37 112 1 18 3 25 6 16 2 -10 11
-18 19 -18 17 0 19 27 2 32 -8 3 -4 9 10 17 26 14 29 36 6 45 -14 5 -13 10 10
29 14 12 26 27 26 33 0 6 11 24 25 40 18 20 24 36 20 53 -5 20 -3 23 14 18 12
-3 19 -1 15 5 -3 5 -3 25 1 44 l6 36 20 -23 c18 -20 19 -21 20 -3 3 44 5 49
17 47 6 -2 12 4 12 13 0 8 5 12 10 9 8 -5 9 17 5 67 -11 146 -13 401 -4 427 6
14 22 36 36 48 13 12 22 27 18 33 -3 5 1 13 10 17 9 3 31 19 48 34 17 16 37
29 44 29 7 0 13 4 13 9 0 5 17 15 38 22 37 13 43 14 72 18 12 1 12 3 2 10 -10
6 -5 11 20 20 31 10 32 10 13 -5 -15 -13 -16 -15 -3 -11 9 3 33 9 53 13 20 3
39 13 42 20 3 9 21 14 46 14 43 0 210 48 215 62 2 5 8 6 13 3 5 -4 23 1 41 9
18 8 57 20 86 26 57 13 72 25 20 16 -25 -5 -28 -4 -12 3 12 5 42 9 67 9 32 -1
53 5 67 17 10 9 26 15 35 11 9 -3 28 2 43 12 19 12 24 13 17 3 -6 -11 -4 -13
11 -7 10 4 32 10 47 13 19 4 26 10 23 20 -4 10 -1 11 14 3 25 -13 30 -13 30 5
0 8 7 15 15 15 8 0 15 4 15 9 0 5 7 8 16 7 9 0 19 5 21 12 3 6 -3 12 -12 12
-9 0 -13 5 -10 10 3 6 17 10 30 10 17 0 23 5 22 19 -1 18 -27 18 -27 0 0 -13
-28 -11 -36 3 -4 6 -2 14 4 16 7 2 12 10 12 19 0 12 11 14 53 11 48 -3 52 -1
55 20 2 14 10 22 20 21 37 -3 40 1 35 41 -5 34 -3 40 12 40 10 0 24 8 31 18
12 15 13 14 14 -11 0 -17 4 -26 10 -22 6 4 8 11 4 16 -11 18 17 79 36 79 10 0
21 -6 23 -12 3 -7 6 -3 6 10 1 16 7 23 19 21 35 -3 43 1 37 20 -3 12 0 21 10
25 12 4 15 -2 15 -29 0 -19 -4 -35 -10 -35 -5 0 -10 -5 -10 -12 0 -6 8 -3 20
7 11 10 17 23 13 29 -4 6 3 3 14 -6 11 -10 22 -18 25 -18 7 0 30 54 27 66 -6
35 2 44 40 44 31 0 40 -4 44 -21 5 -17 11 -20 29 -15 13 4 30 9 38 10 30 6 70
30 70 43 0 7 5 13 10 13 6 0 10 9 10 20 0 11 -4 20 -10 20 -5 0 -10 -4 -10
-10 0 -5 -7 -10 -15 -10 -8 0 -15 4 -15 9 0 14 34 23 55 15 15 -6 17 -3 13 18
-4 19 -1 25 9 21 7 -3 13 0 13 6 0 6 -4 11 -10 11 -5 0 -10 11 -10 25 0 31 16
33 24 3 4 -17 8 -20 17 -11 6 6 18 9 25 6 8 -3 14 -1 14 5 0 5 9 12 20 15 11
3 20 12 20 21 0 12 10 16 45 16 39 0 45 3 45 21 0 18 2 19 15 9 10 -9 15 -9
15 -1 0 6 9 11 20 11 11 0 20 5 20 11 0 5 4 7 10 4 5 -3 10 -2 10 3 0 5 14 7
30 4 18 -3 30 0 30 7 0 6 -13 11 -30 11 -20 0 -30 5 -30 15 0 11 11 15 36 15
42 0 74 15 74 35 0 7 -8 16 -17 19 -11 3 -8 4 7 3 14 -1 26 3 27 8 1 6 12 12
25 15 14 4 24 15 26 28 2 16 10 22 28 22 13 0 24 5 24 10 0 6 11 10 25 10 26
0 34 15 13 23 -7 3 7 14 32 26 25 12 36 19 25 16 -16 -5 -15 -1 8 18 15 14 27
32 27 41 0 9 8 16 20 16 13 0 20 7 20 20 0 14 7 20 23 20 22 0 57 31 57 50 0
6 7 10 16 10 22 0 42 22 46 51 3 21 7 24 41 21 27 -3 37 0 37 11 0 23 24 39
38 25 6 -6 15 -9 19 -5 4 4 2 12 -4 18 -17 17 -4 39 24 39 21 0 24 4 21 32 -3
29 0 33 35 43 41 12 40 25 -2 25 -15 0 -33 -9 -41 -20 -8 -11 -20 -20 -28 -20
-16 0 -42 -24 -42 -40 0 -16 -21 -8 -34 13 -8 13 -8 20 1 25 6 4 16 30 21 57
9 44 10 46 11 16 1 -38 21 -32 24 8 1 16 8 21 29 21 15 0 28 5 28 10 0 6 6 10
14 10 9 0 12 7 9 20 -3 11 -10 20 -15 20 -5 0 -2 7 6 16 20 19 20 28 1 44 -19
16 -19 50 0 50 8 0 15 -5 15 -11 0 -6 6 -17 13 -24 40 -45 40 -46 21 -60 -17
-13 -15 -14 24 -15 l42 0 0 44 c0 26 6 48 15 56 8 7 15 23 15 36 0 17 6 24 20
24 26 0 26 -31 0 -50 -26 -18 -26 -30 0 -30 12 0 20 7 20 16 0 20 24 44 44 44
9 0 16 5 16 10 0 6 5 10 10 10 6 0 10 -6 10 -13 0 -15 49 -42 58 -32 3 3 0 5
-6 5 -7 0 -12 11 -12 24 0 26 -37 43 -54 26 -15 -15 -26 -12 -26 5 0 8 9 15
20 15 22 0 80 50 80 69 0 7 9 9 25 5 23 -6 25 -3 25 25 0 17 -4 31 -10 31 -5
0 -10 14 -10 30 0 31 6 34 50 20 24 -8 24 -8 3 -9 -28 -1 -33 -41 -5 -41 27 0
43 15 36 33 -4 12 -1 17 10 17 9 0 16 5 16 11 0 5 -4 8 -8 5 -4 -2 -14 -1 -22
4 -11 7 -4 9 21 8 39 -1 62 8 54 22 -3 5 8 7 25 5 16 -2 30 1 30 6 0 5 -4 9
-10 9 -16 0 -12 30 5 36 8 3 17 14 20 25 5 16 16 19 66 19 52 0 59 2 59 20 0
13 -7 20 -20 20 -11 0 -20 -4 -20 -10 0 -5 -7 -10 -17 -10 -14 0 -14 2 2 20
10 11 26 20 37 20 13 0 18 7 18 26 0 29 21 54 44 54 10 0 16 9 16 24 0 28 20
47 20 19 1 -17 1 -17 14 0 7 9 18 17 23 17 5 0 18 9 28 20 14 16 16 23 7 32
-9 9 -12 9 -12 -2 0 -10 -4 -8 -14 5 -8 11 -19 16 -30 12 -9 -4 -16 -2 -16 3
0 6 -18 10 -40 10 -31 0 -40 -4 -40 -17 -1 -17 -1 -17 -14 0 -13 16 -148 17
-2600 17 l-2586 0 0 -2690z m4748 2168 c-4 -59 -28 -63 -28 -4 0 35 4 46 16
46 12 0 14 -9 12 -42z m-153 -108 c3 -5 1 -10 -4 -10 -6 0 -11 5 -11 10 0 6 2
10 4 10 3 0 8 -4 11 -10z m-58 -32 c-3 -8 -6 -5 -6 6 -1 11 2 17 5 13 3 -3 4
-12 1 -19z m-141 -55 c-10 -10 -19 5 -10 18 6 11 8 11 12 0 2 -7 1 -15 -2 -18z
m84 -33 c0 -5 -18 -10 -40 -10 -22 0 -40 5 -40 10 0 6 18 10 40 10 22 0 40 -4
40 -10z m-160 -65 c0 -8 -7 -15 -15 -15 -8 0 -15 7 -15 15 0 8 7 15 15 15 8 0
15 -7 15 -15z m80 -6 c0 -24 -23 -21 -28 4 -2 10 3 17 12 17 10 0 16 -9 16
-21z m-130 -44 c0 -8 -6 -15 -12 -15 -7 0 -26 -7 -42 -15 -31 -17 -42 -14 -33
8 3 10 15 13 31 10 19 -4 26 -1 26 11 0 9 7 16 15 16 8 0 15 -7 15 -15z m80
-29 c0 -7 -7 -19 -15 -26 -12 -10 -15 -10 -15 4 0 9 -4 16 -10 16 -5 0 -10 -4
-10 -10 0 -5 -7 -10 -16 -10 -9 0 -25 -10 -35 -22 -11 -11 -22 -18 -27 -13 -4
4 -1 10 6 12 6 3 12 10 12 17 0 6 19 19 43 28 54 20 67 21 67 4z m0 -136 c0
-6 7 -10 15 -10 8 0 15 -4 15 -10 0 -11 -55 -6 -90 8 -18 8 -20 11 -7 11 10 1
20 8 23 16 5 11 11 12 25 4 10 -5 19 -14 19 -19z m-186 -25 c3 -8 1 -15 -3
-15 -5 0 -11 7 -15 15 -3 8 -1 15 3 15 5 0 11 -7 15 -15z m91 5 c-3 -5 -12 -7
-20 -3 -21 7 -19 13 6 13 11 0 18 -4 14 -10z m40 -20 c11 -17 -5 -31 -19 -17
-14 12 -12 27 4 27 5 0 12 -4 15 -10z m-132 -109 c3 -14 1 -18 -9 -14 -8 3
-14 11 -14 19 0 21 17 17 23 -5z m-53 -26 c0 -21 -18 -28 -33 -13 -10 9 -11
15 -3 24 13 14 36 7 36 -11z m-130 -145 c0 -5 -7 -10 -16 -10 -8 0 -12 5 -9
10 3 6 10 10 16 10 5 0 9 -4 9 -10z m-280 -184 c0 -8 -4 -18 -10 -21 -5 -3
-10 3 -10 14 0 12 5 21 10 21 6 0 10 -6 10 -14z m20 -36 c0 -5 -5 -10 -11 -10
-5 0 -7 5 -4 10 3 6 8 10 11 10 2 0 4 -4 4 -10z m-44 -47 c-11 -11 -19 6 -11
24 8 17 8 17 12 0 3 -10 2 -21 -1 -24z m-36 1 c0 -8 -8 -23 -17 -32 -16 -16
-16 -16 -10 1 4 10 7 25 7 33 0 8 5 14 10 14 6 0 10 -7 10 -16z m-70 -23 c17
-32 12 -41 -25 -41 -40 0 -41 2 -17 35 21 30 28 31 42 6z m-210 -191 c0 -5 -4
-10 -10 -10 -5 0 -10 5 -10 10 0 6 5 10 10 10 6 0 10 -4 10 -10z m-83 -16 c-3
-3 -12 -4 -19 -1 -8 3 -5 6 6 6 11 1 17 -2 13 -5z m-687 -484 c8 -5 11 -10 5
-10 -5 0 -17 5 -25 10 -8 5 -10 10 -5 10 6 0 17 -5 25 -10z m-203 -76 c-3 -3
-12 -4 -19 -1 -8 3 -5 6 6 6 11 1 17 -2 13 -5z m-474 -161 c-7 -2 -19 -2 -25
0 -7 3 -2 5 12 5 14 0 19 -2 13 -5z m-133 -31 c0 -5 -7 -9 -15 -9 -8 0 -12 4
-9 9 3 4 9 8 15 8 5 0 9 -4 9 -8z m-626 -1338 c8 -21 -1 -34 -23 -34 -14 0
-17 6 -13 25 5 28 27 33 36 9z m-84 -104 c0 -11 -7 -20 -15 -20 -8 0 -15 9
-15 20 0 11 7 20 15 20 8 0 15 -9 15 -20z m-113 -187 c-3 -3 -11 -2 -17 2 -9
6 -9 10 1 16 14 8 27 -7 16 -18z m-57 -53 c0 -22 -4 -40 -9 -40 -12 0 -20 36
-14 60 9 34 23 22 23 -20z m-180 -190 c0 -5 -10 -10 -22 -9 -22 0 -22 1 -3 9
11 5 21 9 23 9 1 1 2 -3 2 -9z m-590 -574 c0 -7 -7 -19 -15 -26 -12 -10 -15
-9 -15 7 0 11 3 23 7 26 11 12 23 8 23 -7z m27 -18 c-3 -8 -6 -5 -6 6 -1 11 2
17 5 13 3 -3 4 -12 1 -19z m-14 -85 c-13 -2 -33 -2 -45 0 -13 2 -3 4 22 4 25
0 35 -2 23 -4z"/>
<path d="M7978 10218 c-20 -30 -13 -39 33 -42 21 -2 33 4 41 17 9 18 8 19 -20
14 -26 -5 -31 -3 -34 16 -3 21 -4 21 -20 -5z"/>
<path d="M8080 10098 c-1 -127 -3 -146 -20 -166 -24 -29 -40 -21 -40 19 0 18
-4 28 -10 24 -5 -3 -10 1 -10 9 0 9 5 16 10 16 6 0 10 18 10 40 0 29 -4 40
-15 40 -8 0 -12 6 -9 14 3 8 1 17 -5 21 -7 3 -11 -2 -11 -14 0 -12 -6 -21 -14
-21 -9 0 -12 -7 -9 -20 3 -11 14 -20 24 -20 12 0 19 -7 19 -20 0 -22 -35 -28
-43 -7 -4 10 -6 10 -6 0 -1 -7 -10 -13 -21 -13 -17 0 -20 7 -20 40 0 39 -1 40
-35 40 -31 0 -35 -3 -35 -25 0 -26 -3 -29 -53 -40 -27 -5 -29 -8 -25 -53 3
-44 1 -47 -22 -49 -22 -1 -22 -1 -2 4 36 7 25 23 -15 22 -41 0 -94 -17 -60
-18 24 -1 21 -26 -5 -43 -18 -12 -21 -23 -19 -71 2 -54 1 -56 -26 -59 -22 -2
-30 -10 -38 -35 -7 -25 -15 -33 -32 -33 -21 0 -23 -4 -23 -55 0 -30 -4 -55
-10 -55 -5 0 -10 9 -10 19 0 21 -16 37 -22 22 -1 -5 -28 -11 -59 -12 -42 -2
-61 2 -74 14 -20 21 -29 21 -49 2 -8 -8 -18 -15 -23 -15 -5 0 -20 -13 -35 -30
-22 -25 -34 -30 -71 -30 -29 0 -47 -5 -50 -14 -4 -10 0 -12 14 -9 16 5 19 0
19 -34 0 -27 -7 -46 -21 -59 -11 -10 -31 -29 -43 -41 -13 -13 -28 -23 -33 -23
-6 0 -14 -8 -17 -17 -15 -40 -39 -76 -55 -80 -25 -6 -39 -35 -30 -58 6 -17 8
-17 8 -2 1 20 19 22 44 3 11 -8 17 -27 17 -50 0 -20 5 -36 10 -36 6 0 10 9 10
20 0 13 7 20 20 20 11 0 20 5 20 10 0 6 5 10 10 10 6 0 10 -20 10 -45 0 -31
-4 -44 -12 -42 -8 1 -14 -10 -16 -25 -2 -20 1 -28 12 -28 12 0 16 -10 16 -39
0 -34 -3 -39 -20 -36 -13 2 -20 -2 -20 -11 0 -9 11 -14 30 -14 27 0 30 -3 30
-30 0 -19 -5 -30 -14 -30 -9 0 -12 7 -9 20 3 11 0 20 -6 20 -6 0 -11 -7 -11
-15 0 -8 -6 -15 -12 -15 -9 0 -8 -4 2 -10 11 -7 11 -10 2 -10 -9 0 -10 -5 -2
-19 6 -13 17 -17 30 -14 13 4 22 -1 27 -13 3 -11 11 -22 17 -26 7 -5 4 -8 -6
-8 -9 0 -18 7 -20 15 -6 27 -25 1 -32 -43 -5 -34 -4 -42 6 -35 7 4 20 8 28 8
40 1 120 18 116 24 -3 4 7 6 22 4 15 -3 38 1 52 7 l25 10 -27 -3 c-15 -2 -25
0 -22 5 3 5 20 8 38 7 17 -1 45 -1 61 0 25 1 27 3 13 12 -17 9 -17 11 2 31 11
12 20 28 20 37 0 8 3 11 7 8 3 -4 0 -19 -7 -33 -12 -21 -12 -27 0 -34 19 -12
36 0 19 12 -9 6 0 8 29 4 29 -4 41 -3 37 4 -3 5 1 10 9 10 8 0 18 -5 21 -10 4
-6 10 -8 15 -5 5 3 11 1 14 -4 4 -5 19 -3 37 6 34 17 45 13 31 -13 -10 -19 -5
-54 9 -54 5 0 9 7 9 16 0 10 5 14 15 10 12 -4 14 0 10 22 l-5 27 11 -27 c9
-23 7 -32 -10 -54 -12 -15 -21 -32 -21 -40 0 -7 -11 -25 -24 -41 -12 -15 -25
-39 -29 -53 -3 -14 -10 -38 -15 -55 -6 -16 -18 -66 -28 -110 -18 -89 -61 -192
-93 -226 -12 -13 -21 -29 -21 -36 0 -7 -5 -13 -11 -13 -6 0 -19 -10 -30 -22
-16 -20 -20 -21 -30 -8 -9 13 -10 12 -5 -2 6 -22 -19 -49 -39 -42 -9 4 -15 0
-15 -10 0 -16 -9 -19 -40 -17 -10 0 -11 -1 -2 -5 16 -7 16 -34 -1 -34 -23 0
-67 -25 -67 -37 0 -14 -13 -16 -48 -6 -18 4 -20 8 -10 14 10 7 9 9 -4 9 -25 0
-23 -21 2 -27 11 -3 20 -9 20 -13 0 -14 -133 -62 -188 -67 -29 -3 -55 -10 -58
-14 -4 -8 17 -13 38 -10 15 2 3 -41 -14 -50 -26 -14 -22 -29 6 -29 45 0 56 -9
44 -36 -6 -13 -14 -24 -17 -24 -4 0 -7 -9 -8 -21 -2 -17 1 -18 13 -9 13 11 18
7 16 -11 -1 -4 7 -5 18 -2 10 3 17 10 14 16 -2 7 9 13 28 14 20 2 28 -1 20 -6
-8 -5 2 -12 30 -20 24 -7 46 -18 50 -25 6 -8 8 -8 8 2 0 6 5 12 11 12 6 0 8
-7 5 -16 -8 -22 4 -40 16 -23 6 10 7 7 3 -8 -5 -17 -2 -23 10 -23 12 0 15 -5
11 -16 -4 -10 1 -22 11 -30 11 -9 14 -17 8 -21 -15 -12 -16 -76 -2 -86 8 -5 3
-7 -13 -5 -30 3 -53 -9 -44 -24 4 -6 3 -8 -3 -5 -5 3 -27 1 -47 -5 -31 -10
-34 -13 -20 -19 11 -4 -11 -4 -48 -1 -57 4 -68 2 -68 -11 0 -9 5 -19 12 -23 6
-4 8 -3 5 4 -5 6 1 8 15 4 21 -5 21 -5 -2 -14 l-24 -9 32 -19 c18 -11 32 -22
32 -25 0 -4 -3 -4 -7 -2 -5 3 -14 -2 -22 -10 -12 -13 -11 -14 6 -9 22 7 66
-22 46 -30 -18 -8 -16 -24 3 -24 9 0 18 -9 21 -20 5 -19 14 -24 41 -21 6 1 12
-7 12 -18 0 -11 -6 -22 -12 -25 -7 -3 -1 -3 15 0 20 5 27 2 27 -10 0 -17 67
-85 160 -164 30 -26 104 -89 164 -141 l110 -95 12 65 c16 83 17 95 2 111 -32
33 -67 88 -93 145 -15 34 -33 59 -38 56 -6 -4 -8 0 -5 9 4 8 2 21 -3 29 -6 10
-9 10 -9 2 0 -7 -4 -13 -9 -13 -4 0 -6 11 -3 25 2 15 0 25 -7 25 -7 0 -9 -5
-4 -12 4 -7 -13 7 -37 31 -35 34 -46 41 -48 28 -4 -22 -22 -22 -22 -1 0 10 -6
14 -14 11 -24 -9 -46 26 -46 74 -1 54 1 65 22 106 9 18 14 41 11 52 -4 15 1
20 19 23 15 2 24 11 26 26 3 21 32 32 32 12 0 -6 18 -1 40 10 23 12 38 25 35
30 -4 6 -1 10 4 10 6 0 11 8 11 18 0 9 7 30 15 45 8 15 11 35 8 44 -4 11 -3
14 5 9 7 -4 12 -3 12 3 0 5 -5 13 -10 16 -16 10 -1 25 18 19 13 -5 14 -4 3 4
-15 11 -6 36 10 27 9 -6 13 7 10 36 -1 9 8 19 20 22 17 5 21 12 17 35 -4 25
-1 29 20 26 13 -1 21 0 19 3 -3 2 10 19 29 37 19 18 36 43 37 54 1 13 5 18 10
13 6 -6 21 -5 39 1 16 6 26 13 23 16 -3 3 9 11 27 17 18 6 32 16 31 23 -2 6 4
9 12 6 9 -4 21 -2 28 4 6 5 48 25 92 43 44 18 88 39 98 47 9 9 20 12 24 9 3
-4 0 -7 -7 -7 -7 0 -11 -3 -8 -6 3 -3 21 1 39 9 22 9 79 14 159 16 134 2 176
-9 173 -44 -24 -266 -149 -555 -290 -670 -30 -25 -48 -45 -40 -45 22 0 66 -56
96 -120 21 -46 25 -70 25 -145 1 -78 -3 -100 -28 -160 -31 -72 -46 -97 -105
-166 -47 -55 -63 -62 -98 -44 -15 8 -36 15 -45 15 -10 0 -28 14 -40 31 -13 17
-44 42 -70 55 -47 24 -48 24 -67 5 -11 -11 -21 -17 -23 -15 -9 8 -71 -79 -79
-110 -7 -29 -8 -30 -14 -8 -10 29 -22 28 -28 -4 -8 -42 42 -84 184 -155 46
-23 87 -47 91 -53 18 -27 29 -88 34 -186 5 -120 20 -246 36 -305 12 -43 53
-105 69 -105 20 0 58 53 75 102 18 54 14 146 -7 158 -6 4 -11 11 -11 16 0 5
-8 25 -19 45 -10 20 -15 40 -11 43 3 4 2 10 -4 14 -12 8 -44 101 -44 127 0 22
62 49 94 41 32 -8 66 -42 173 -176 82 -102 137 -200 163 -287 7 -24 17 -43 23
-43 12 0 189 71 202 81 36 27 325 84 325 64 0 -3 -21 -46 -46 -97 -104 -207
-135 -365 -173 -883 -12 -157 -36 -266 -80 -358 -35 -72 -45 -85 -88 -115 -37
-26 -51 -28 -32 -5 13 15 11 16 -13 11 -19 -3 -35 2 -55 19 -22 19 -34 23 -61
18 -25 -5 -39 -2 -53 11 -11 10 -19 12 -19 5 0 -14 -49 -7 -64 10 -8 9 -8 10
2 5 7 -4 12 -1 12 8 0 23 -69 22 -86 -1 -10 -13 -16 -15 -22 -6 -5 8 -19 9
-44 4 -20 -5 -40 -6 -43 -3 -3 4 -3 -1 1 -11 4 -10 1 -17 -6 -17 -8 0 -10 -9
-6 -27 4 -18 3 -23 -2 -15 -6 9 -14 -3 -25 -40 -8 -29 -26 -91 -40 -138 -36
-120 -65 -244 -77 -325 -18 -128 -26 -123 103 -58 61 32 115 59 120 61 4 2 7
0 7 -5 0 -5 -54 -37 -119 -71 -67 -35 -122 -71 -125 -80 -2 -9 -12 -60 -22
-111 -10 -52 -19 -90 -21 -84 -2 6 3 49 12 95 9 45 20 142 25 213 5 90 17 168
39 254 17 68 29 133 26 145 -5 17 -4 18 5 6 8 -12 9 -8 4 15 -4 17 -11 37 -16
45 -8 13 -9 13 -5 -1 3 -9 1 -22 -4 -30 -7 -11 -9 -9 -9 8 0 29 -16 38 -23 13
-3 -11 -14 -20 -25 -20 -27 0 -74 -25 -101 -54 -13 -14 -27 -23 -32 -21 -4 3
-5 -5 -1 -17 4 -18 2 -20 -16 -16 -16 4 -19 2 -15 -10 5 -12 2 -14 -12 -8 -17
6 -18 5 -3 -11 9 -10 19 -28 23 -41 3 -12 11 -19 17 -16 6 4 8 3 5 -3 -4 -6
10 -29 29 -52 41 -47 86 -130 78 -143 -3 -5 -16 13 -30 39 -28 56 -107 143
-130 143 -9 0 -18 -9 -21 -20 -3 -13 -14 -20 -29 -20 -15 0 -24 -6 -24 -15 0
-18 -27 -20 -32 -3 -4 10 -10 10 -29 1 -18 -9 -20 -12 -6 -12 9 -1 17 -5 17
-10 0 -18 -27 -30 -88 -37 -34 -3 -62 -10 -62 -15 0 -11 -42 -7 -56 6 -8 6 -9
14 -3 22 6 6 7 22 4 36 -8 29 26 151 61 219 37 74 125 161 201 200 l68 36 -5
63 c-3 35 -5 132 -4 214 1 132 4 161 28 240 35 118 101 254 164 338 28 37 47
67 42 67 -4 0 -10 -6 -13 -12 -3 -9 -11 -5 -22 10 -13 18 -23 22 -42 17 -14
-3 -30 -1 -37 4 -14 11 -56 11 -56 -1 0 -4 -44 -6 -97 -5 -77 2 -105 -1 -129
-14 -17 -9 -46 -19 -65 -22 -19 -4 -61 -15 -93 -26 -33 -12 -64 -21 -70 -21
-26 0 -86 -22 -81 -29 3 -5 -2 -11 -10 -15 -10 -4 -15 1 -16 17 0 12 -3 16 -6
10 -2 -7 -14 -13 -25 -13 -10 0 -26 -7 -34 -15 -9 -8 -33 -15 -55 -15 -36 0
-41 -3 -55 -35 -14 -34 -43 -52 -30 -19 5 12 2 15 -11 9 -10 -4 -24 -8 -31 -8
-10 0 -12 -9 -8 -29 5 -26 4 -27 -9 -14 -8 8 -15 19 -15 25 0 5 -4 12 -8 15
-5 3 -6 -9 -4 -26 3 -19 1 -29 -6 -25 -5 4 -13 27 -16 51 -8 53 -45 106 -114
165 -28 24 -49 48 -46 53 3 5 0 7 -6 6 -6 -2 -23 19 -38 46 -25 47 -25 51 -13
120 7 39 17 98 21 131 25 165 -63 354 -198 428 -109 59 -210 55 -300 -13 l-52
-40 -57 15 c-32 8 -69 15 -83 15 l-26 0 1 1068 c0 1063 0 1067 -21 1107 -24
47 -76 85 -114 85 -15 0 -121 -29 -236 -64 -115 -36 -279 -85 -364 -110 -256
-73 -605 -175 -768 -222 -85 -25 -335 -97 -555 -161 -221 -63 -463 -133 -537
-155 -74 -21 -263 -74 -420 -118 -157 -43 -431 -121 -610 -173 -179 -52 -392
-114 -475 -137 -224 -64 -271 -94 -318 -200 -19 -42 -20 -59 -14 -260 4 -118
14 -343 22 -500 27 -518 74 -1597 90 -2095 10 -286 21 -502 28 -519 22 -60
102 -81 188 -50 24 8 213 67 419 130 206 63 542 169 745 234 204 65 489 155
635 200 295 90 320 99 320 111 0 5 -12 38 -26 73 -25 63 -26 65 -52 55 -25
-10 -310 -95 -585 -175 -65 -19 -122 -32 -127 -29 -6 4 -10 2 -10 -4 0 -16
-38 -23 -57 -11 -15 10 -14 11 10 7 31 -5 33 -2 11 20 -13 14 -17 14 -26 2 -8
-11 -9 -10 -4 4 6 19 -12 67 -26 67 -4 0 -8 5 -8 11 0 5 5 7 10 4 6 -4 10 9
10 32 0 23 3 33 8 25 7 -9 13 -7 28 9 19 21 19 21 -6 18 -23 -4 -24 -2 -21 39
2 30 -1 42 -11 42 -7 0 -19 9 -26 21 -8 13 -19 18 -29 15 -10 -4 -13 -2 -10 7
3 8 1 20 -4 28 -7 11 -9 11 -9 -3 0 -12 -8 -18 -23 -18 -13 0 -32 -9 -41 -19
-20 -22 -85 -44 -465 -151 -156 -44 -301 -81 -323 -82 -30 -1 -45 5 -65 25
-24 23 -26 34 -32 138 -7 129 -5 127 -111 127 -42 0 -48 -2 -25 -7 25 -5 27
-8 12 -14 -10 -4 -43 -7 -73 -7 -30 0 -54 -4 -54 -9 0 -15 -34 -7 -42 9 -4 8
-8 -16 -9 -55 l-2 -70 -8 95 c-4 52 -15 239 -23 415 -9 176 -21 412 -26 525
-6 113 -17 347 -25 520 -13 268 -35 659 -49 847 l-3 52 46 15 c25 8 150 45
276 81 127 37 325 96 440 132 116 36 278 85 360 109 83 24 274 80 425 124 394
115 954 276 1030 295 36 9 238 65 450 125 212 59 455 126 540 149 85 23 208
58 273 78 65 19 121 33 124 29 4 -3 -2 -6 -13 -6 -16 0 -17 -2 -4 -11 11 -8 9
-9 -10 -3 -22 6 -23 5 -8 -10 9 -9 21 -16 27 -16 6 0 15 -10 22 -21 8 -16 8
-20 -1 -14 -7 5 -7 0 2 -14 7 -12 19 -19 25 -16 8 3 13 -4 13 -18 0 -47 31
-56 68 -20 18 17 32 16 32 -2 0 -9 9 -15 25 -15 20 0 24 -5 22 -22 -1 -16 3
-23 15 -22 11 1 18 -9 21 -30 3 -17 6 -397 7 -845 l1 -813 -73 5 c-47 4 -61 3
-38 -2 31 -8 32 -9 8 -10 -15 0 -50 -10 -78 -21 -28 -11 -56 -17 -62 -14 -7 4
-8 2 -4 -4 4 -6 -4 -17 -18 -24 -40 -22 -135 -117 -155 -156 -38 -75 -49 -132
-40 -209 5 -39 18 -93 29 -118 26 -60 25 -60 -9 -74 -53 -23 -57 -68 -16 -169
10 -23 26 -47 36 -52 27 -15 34 -12 16 8 -20 23 -57 116 -57 147 0 56 45 29
55 -33 11 -67 13 -68 14 -10 0 31 6 60 12 64 8 5 7 10 -4 16 -23 13 -9 38 21
38 34 0 79 -32 120 -85 28 -37 32 -49 26 -79 -3 -20 -15 -47 -26 -61 -11 -14
-14 -25 -8 -25 6 0 8 -4 5 -10 -3 -5 2 -10 11 -10 13 0 15 3 7 11 -8 8 -6 20
9 45 11 19 24 34 30 34 5 0 6 9 3 20 -7 22 2 24 53 14 24 -5 31 -12 35 -38 16
-97 66 -146 149 -146 39 0 54 6 82 31 22 19 38 43 42 65 9 47 40 66 101 62 37
-2 47 -6 44 -18 -5 -20 -3 -51 3 -58 7 -6 56 45 56 58 0 4 3 17 6 27 5 15 4
15 -5 3 -5 -8 -13 -12 -16 -8 -3 3 8 22 25 42 23 26 40 36 61 36 35 0 49 -23
49 -81 0 -39 -5 -48 -54 -95 -41 -40 -61 -52 -81 -51 -45 3 -66 -36 -66 -121
0 -102 23 -143 109 -198 2 -2 -10 -23 -27 -47 -65 -94 -185 -179 -274 -194
-49 -8 -121 26 -142 68 -14 27 -16 49 -10 140 l7 109 -29 0 c-65 0 -125 28
-173 79 -26 28 -46 52 -44 53 1 2 -6 14 -17 28 l-20 25 6 -25 c5 -18 4 -21 -4
-11 -8 12 -14 11 -35 -10 -14 -13 -26 -29 -26 -35 0 -6 -7 -17 -15 -24 -8 -7
-15 -21 -15 -31 0 -17 -11 -24 -32 -20 -4 0 -17 -7 -29 -17 -11 -9 -33 -27
-47 -39 -15 -13 -31 -23 -35 -23 -12 0 -37 -26 -37 -38 0 -13 -56 -33 -66 -24
-4 4 -4 2 -1 -4 8 -14 -18 -38 -32 -30 -15 10 -39 -4 -44 -25 -3 -13 -14 -19
-32 -19 -16 0 -36 -11 -51 -27 -15 -16 -31 -29 -38 -29 -6 -1 -17 -2 -25 -3
-8 -1 -11 -8 -9 -19 4 -13 -2 -17 -24 -18 -18 -1 -35 -10 -44 -23 -8 -11 -23
-21 -32 -21 -10 0 -33 -13 -52 -30 -38 -32 -84 -39 -97 -15 -7 12 -17 12 -72
-5 -102 -32 -102 -33 -15 -69 102 -42 315 -133 380 -163 64 -29 121 -98 187
-225 42 -82 63 -133 37 -93 -22 35 -16 0 11 -58 25 -57 31 -63 51 -56 13 3 25
10 28 15 10 14 183 -8 233 -30 27 -11 62 -21 79 -21 17 0 71 -18 119 -40 54
-25 124 -48 186 -60 54 -10 148 -30 208 -44 61 -14 153 -30 205 -36 107 -12
259 -52 271 -71 12 -20 22 -4 11 18 -9 16 -5 18 49 19 32 1 59 -2 59 -7 0 -5
5 -9 11 -9 5 0 7 5 4 10 -4 6 6 10 22 10 22 0 25 -2 13 -10 -8 -5 -11 -10 -6
-10 5 0 3 -6 -3 -13 -6 -8 -7 -17 -3 -22 4 -4 -3 -5 -16 -2 -12 3 -28 -1 -36
-8 -9 -10 -23 -11 -50 -5 -25 5 -36 4 -36 -4 0 -6 -14 -11 -30 -12 -17 -1 -39
-9 -49 -18 -10 -9 -25 -14 -34 -11 -8 4 -18 1 -22 -4 -3 -6 -11 -9 -16 -6 -5
3 -7 0 -4 -7 3 -9 -4 -14 -22 -15 -77 -5 -240 -14 -257 -14 -11 0 -27 -4 -37
-9 -12 -7 -22 -6 -31 3 -15 13 -75 44 -158 80 -52 22 -59 23 -105 11 -28 -7
-62 -13 -77 -14 -15 0 -29 -4 -32 -9 -3 -5 -32 -12 -63 -16 -45 -6 -52 -9 -33
-14 30 -8 20 -15 -40 -31 -98 -25 -151 -42 -147 -46 2 -2 52 10 112 26 179 51
151 29 -38 -29 -97 -29 -184 -51 -194 -48 -10 3 -101 40 -203 82 -102 42 -253
104 -336 136 -139 55 -197 89 -181 106 4 3 62 -17 129 -45 171 -71 606 -232
626 -232 17 0 -39 137 -161 390 -35 74 -71 153 -80 175 -9 22 -20 39 -25 38
-5 -1 -15 8 -22 21 -12 23 -13 23 -31 5 -10 -10 -19 -24 -19 -30 0 -5 -4 -8
-9 -5 -5 3 -15 -1 -22 -10 -10 -12 -24 -14 -54 -10 -22 2 -34 3 -27 0 27 -12
10 -24 -30 -22 -30 2 -42 -1 -41 -9 3 -12 -10 -18 -31 -14 -4 1 -14 -3 -21 -9
-11 -9 -17 -5 -29 17 l-15 28 6 -32 c4 -23 2 -33 -7 -33 -8 0 -10 -9 -6 -26 4
-15 3 -23 -3 -20 -5 3 -12 -1 -15 -9 -5 -13 -10 -14 -27 -4 -12 6 -19 7 -15 1
3 -6 2 -12 -2 -14 -5 -1 -15 -16 -23 -33 -10 -21 -23 -32 -44 -35 -17 -3 -49
-18 -73 -33 -44 -28 -142 -46 -142 -26 0 5 -4 9 -10 9 -5 0 -7 -7 -4 -15 4 -8
10 -15 15 -15 4 0 50 -23 101 -51 85 -46 218 -106 453 -204 50 -21 136 -57
191 -81 123 -53 181 -57 301 -20 163 51 143 51 304 -3 194 -65 450 -168 1014
-407 45 -19 84 -34 88 -34 4 0 58 -24 120 -52 108 -51 115 -53 197 -52 88 0
128 9 217 51 45 21 55 22 75 11 41 -22 173 -15 263 15 291 97 569 313 673 525
15 28 30 52 34 52 4 0 76 -25 160 -56 255 -94 324 -137 346 -217 5 -18 6 -78
2 -135 -8 -107 -13 -120 -70 -167 -36 -30 -133 -69 -298 -120 -81 -25 -217
-68 -302 -95 -85 -27 -218 -68 -295 -90 -169 -50 -386 -118 -680 -211 -121
-39 -260 -83 -310 -99 -49 -16 -193 -62 -320 -103 -126 -41 -325 -105 -442
-142 l-211 -68 1 -86 c3 -116 -17 -155 -93 -193 -52 -26 -702 -259 -930 -334
-250 -82 -559 -117 -704 -79 -105 28 -725 306 -809 364 -57 39 -60 44 -60 94
0 62 43 93 231 168 174 69 253 106 264 123 4 6 8 23 8 38 0 32 -4 35 -150 99
-58 25 -170 75 -250 111 -125 57 -501 224 -625 278 -22 9 -60 25 -85 35 -25 9
-60 23 -77 31 -21 9 -41 11 -55 5 -13 -4 -28 -6 -35 -4 -6 2 -14 -1 -18 -6 -3
-6 -11 -11 -16 -11 -6 0 -7 4 -4 10 24 39 -66 -36 -99 -83 -49 -68 -56 -73
-93 -69 -28 4 -38 0 -51 -19 -9 -13 -16 -27 -14 -31 1 -5 -7 -9 -18 -9 -11 -1
-26 -2 -32 -3 -7 -1 -12 7 -12 17 1 10 -3 16 -9 14 -6 -2 -11 -14 -11 -28 0
-31 -21 -53 -46 -46 -13 3 -20 0 -20 -9 0 -8 -7 -14 -15 -14 -11 0 -15 -11
-15 -40 0 -33 -3 -40 -20 -40 -11 0 -20 7 -20 15 0 20 -12 19 -32 -4 -14 -16
-14 -20 -2 -25 8 -3 14 -15 14 -26 0 -16 -7 -20 -30 -20 -36 0 -37 -4 -5 -36
28 -28 33 -54 10 -54 -9 0 -12 -6 -9 -15 4 -8 10 -13 14 -10 5 3 11 1 15 -5
10 -16 25 -12 25 7 0 9 2 14 5 11 3 -3 2 -24 -4 -47 -5 -24 -5 -43 0 -47 5 -3
9 0 9 6 0 14 38 3 57 -16 19 -19 16 -26 -7 -12 -10 7 -22 9 -25 6 -9 -8 36
-59 46 -52 5 3 6 -1 3 -9 -3 -8 0 -18 7 -23 7 -4 10 -3 6 3 -4 6 0 16 7 22 12
10 14 8 9 -11 -4 -19 -3 -20 7 -8 10 12 11 11 7 -7 -3 -13 -1 -23 4 -23 5 0 9
8 10 18 0 14 2 14 9 -3 8 -19 9 -19 9 -1 1 16 4 17 13 8 13 -13 3 -24 -26 -35
-5 -2 -6 -12 -2 -23 6 -16 9 -17 19 -4 13 16 51 24 41 9 -3 -5 -12 -9 -20 -9
-18 0 -17 -10 2 -35 16 -19 16 -19 9 5 -8 25 -7 25 13 6 12 -10 19 -23 15 -29
-3 -6 -1 -7 5 -3 7 4 12 2 12 -5 0 -6 8 -9 20 -6 11 3 18 1 15 -3 -6 -9 29
-24 65 -29 5 0 7 -9 4 -18 -5 -15 -4 -15 4 -3 9 12 13 12 30 -3 26 -23 39 -21
58 9 l17 25 22 -27 c16 -20 27 -25 41 -21 18 7 18 6 1 -7 -16 -12 -16 -14 -1
-20 25 -9 41 -7 24 4 -8 5 -10 10 -4 10 16 0 23 -10 17 -26 -3 -8 -13 -14 -22
-14 -9 0 -5 -6 13 -15 42 -22 56 -19 56 12 0 25 1 25 18 10 10 -10 22 -14 25
-10 4 3 7 -4 7 -16 0 -16 4 -21 14 -18 11 4 13 1 9 -11 -4 -9 -11 -20 -16 -23
-5 -4 -5 -9 2 -13 6 -4 11 -2 11 3 0 6 7 11 15 11 9 0 12 -6 9 -15 -4 -8 -1
-15 6 -15 6 0 8 5 5 10 -3 6 -1 10 4 10 6 0 11 -6 11 -14 0 -13 4 -13 27 0 38
19 65 19 39 -1 -11 -8 -14 -15 -7 -15 7 0 10 -4 6 -9 -7 -13 28 -23 50 -15 14
6 16 4 10 -6 -6 -10 -3 -12 13 -8 12 4 20 3 18 -1 -6 -10 140 -54 181 -55 17
-1 29 -4 27 -7 -9 -16 297 -70 397 -70 78 0 119 -15 105 -37 -4 -7 -21 -12
-37 -12 -17 0 -28 -4 -25 -9 3 -4 -7 -6 -22 -3 -23 5 -24 6 -7 12 12 4 -10 9
-55 14 -103 9 -343 59 -470 97 -58 17 -115 32 -127 32 -13 1 -23 5 -23 9 0 3
-15 5 -32 4 -51 -5 -54 -6 -38 -16 8 -5 10 -10 4 -10 -21 0 -24 14 -7 32 15
17 15 18 -3 19 -10 1 -27 0 -38 -1 -10 -1 -15 3 -12 8 9 15 -74 40 -114 35
-27 -3 -31 -2 -20 6 13 9 12 11 -3 11 -10 0 -16 4 -13 8 3 5 -29 14 -70 21
-41 8 -74 18 -74 22 0 5 -4 9 -9 9 -5 0 -4 -11 2 -25 8 -16 21 -25 37 -26 37
-2 42 -3 83 -22 35 -15 44 -40 14 -36 -7 1 -21 1 -32 0 -20 -2 -20 -2 -1 -16
16 -12 22 -12 29 -2 6 8 7 4 4 -10 -4 -18 -1 -23 14 -23 10 0 19 5 19 10 0 6
-4 10 -10 10 -25 0 -7 15 20 16 18 1 27 -2 23 -9 -3 -5 -1 -7 5 -3 13 8 63
-14 56 -25 -3 -5 9 -9 26 -9 32 0 34 19 2 21 -14 0 -13 2 3 9 11 5 27 9 35 9
9 0 8 -4 -5 -9 -11 -5 -14 -9 -7 -9 6 -1 12 -10 12 -21 0 -23 1 -24 34 -9 14
7 23 15 20 20 -2 4 4 7 14 6 14 -1 18 -7 14 -20 -4 -17 -1 -19 21 -13 17 4 27
2 27 -5 0 -6 -9 -13 -20 -16 -28 -7 -25 -15 13 -34 27 -13 32 -22 32 -51 0
-28 3 -34 18 -30 9 2 17 -1 17 -7 0 -6 15 -11 34 -11 19 0 41 -3 50 -6 21 -8
21 -30 0 -38 -24 -9 -64 -7 -62 3 2 5 0 9 -4 10 -21 3 -28 0 -28 -12 0 -16 65
-38 86 -30 15 6 57 -25 49 -36 -2 -4 13 -8 34 -9 32 -2 43 2 65 29 15 17 28
30 29 28 1 -2 11 -15 22 -28 11 -14 14 -21 8 -17 -7 4 -13 2 -13 -3 0 -6 5
-11 10 -11 6 0 10 -11 10 -25 0 -14 5 -25 10 -25 6 0 10 -7 10 -15 0 -8 9 -15
20 -15 26 0 26 12 0 30 -11 8 -20 18 -20 22 0 10 44 10 54 1 4 -4 25 -13 46
-19 34 -10 41 -9 56 7 9 11 26 19 36 19 22 0 54 28 44 38 -4 3 -10 2 -14 -4
-4 -6 -20 -14 -37 -17 -16 -4 -45 -9 -62 -13 -22 -4 -33 -2 -33 5 0 6 -7 11
-15 11 -8 0 -15 7 -15 15 0 9 6 12 15 9 8 -4 15 -10 15 -15 0 -5 11 -9 25 -9
14 0 25 4 25 9 0 14 70 35 105 32 17 -1 36 -11 44 -22 9 -13 25 -19 52 -19 28
0 39 -4 39 -15 0 -8 6 -15 14 -15 7 0 21 -11 31 -24 13 -17 33 -26 69 -32 l51
-8 -42 -4 c-29 -2 -43 -8 -43 -18 0 -8 -10 -14 -22 -15 -13 0 -17 -3 -10 -6 6
-2 10 -9 6 -14 -3 -5 2 -9 10 -9 20 0 20 -14 1 -34 -8 -8 -15 -23 -15 -33 0
-14 2 -15 9 -4 7 11 10 10 14 -5 4 -16 5 -17 6 -1 2 25 16 21 29 -8 16 -34 15
-35 -8 -35 -16 0 -20 -7 -20 -30 0 -16 5 -30 11 -30 5 0 7 -5 3 -11 -3 -6 -16
-8 -28 -5 -25 6 -51 -7 -42 -22 5 -8 15 -8 31 -2 22 9 25 7 25 -16 0 -21 -3
-23 -19 -14 -27 14 -61 13 -62 -2 0 -7 -6 3 -13 22 l-13 35 -6 -27 c-4 -14 -4
-34 -1 -42 5 -13 -2 -16 -40 -16 -34 0 -48 -4 -53 -16 -6 -15 -8 -15 -20 2
-12 17 -13 17 -13 -3 0 -15 -7 -23 -22 -25 -13 -2 -22 -8 -21 -14 3 -17 -49
-8 -59 10 -5 9 -21 21 -34 26 -13 5 -24 16 -24 25 0 9 -9 15 -22 15 -13 0 -32
7 -42 15 -27 20 -96 20 -96 0 0 -11 -11 -15 -40 -15 -38 0 -40 2 -40 30 0 33
-5 35 -46 20 -20 -8 -29 -8 -35 2 -12 18 -1 28 32 28 26 0 29 3 29 30 0 29 1
30 50 30 37 0 50 -4 50 -15 0 -12 -5 -13 -24 -3 -31 14 -56 4 -56 -22 0 -15 7
-20 28 -20 15 0 33 5 40 12 9 9 12 5 12 -20 0 -31 2 -32 40 -32 35 0 40 3 41
23 l0 22 10 -23 c11 -28 30 -25 44 6 5 12 13 22 17 22 5 0 8 10 8 21 0 22 -18
23 -62 4 -13 -5 -18 -3 -18 8 0 8 8 19 18 23 11 6 -30 11 -113 16 -71 4 -169
10 -217 14 -60 4 -88 2 -88 -5 0 -7 30 -11 80 -11 63 0 80 -3 80 -14 0 -8 -5
-18 -10 -21 -6 -3 -10 -15 -10 -26 0 -10 -7 -19 -15 -19 -8 0 -15 -4 -15 -10
0 -5 -25 -10 -55 -10 -30 0 -55 -4 -55 -10 0 -6 -33 -10 -80 -10 -64 0 -80 3
-80 15 0 15 -5 16 -107 19 -47 1 -48 1 -54 -34 -4 -25 -8 -30 -13 -19 -4 9 -6
20 -5 25 4 21 -2 31 -18 31 -60 -1 -83 4 -83 17 0 9 7 12 20 9 14 -4 20 0 20
12 0 14 -6 16 -30 12 -29 -6 -30 -6 -30 33 0 22 -4 40 -10 40 -5 0 -10 9 -10
20 0 15 -7 20 -25 20 -16 0 -25 -6 -25 -15 0 -8 -7 -15 -15 -15 -8 0 -15 7
-15 15 0 11 -11 15 -40 15 -38 0 -40 2 -40 30 0 20 -5 30 -15 30 -8 0 -15 4
-15 8 0 16 -40 55 -48 47 -4 -4 -1 -10 6 -12 6 -3 12 -13 12 -24 0 -16 -7 -19
-50 -19 -43 0 -50 -3 -50 -20 0 -11 6 -20 14 -20 26 0 28 -20 4 -29 -20 -8
-17 -10 19 -10 24 -1 43 4 46 12 4 8 8 9 14 1 4 -6 20 -14 36 -18 20 -5 27
-12 27 -31 0 -16 -6 -25 -16 -25 -8 0 -12 -4 -9 -10 3 -5 15 -10 26 -10 10 0
19 -7 19 -15 0 -8 7 -15 15 -15 19 0 19 26 0 34 -21 8 -19 36 3 36 25 0 62
-45 62 -74 0 -19 6 -25 28 -28 23 -3 27 -8 30 -40 3 -30 7 -38 23 -38 10 0 19
-4 19 -10 0 -5 -9 -10 -20 -10 -11 0 -20 -4 -20 -10 0 -5 -11 -12 -25 -16 -14
-3 -25 -12 -25 -20 0 -8 10 -14 25 -14 14 0 25 -5 25 -12 0 -6 9 -3 20 7 19
17 21 17 40 0 11 -10 20 -21 20 -25 0 -11 -41 -36 -72 -44 -24 -5 -28 -3 -28
15 0 24 -36 58 -62 59 -14 0 -18 9 -18 40 0 29 -4 40 -15 40 -8 0 -15 5 -15
10 0 6 -7 10 -15 10 -8 0 -15 -4 -15 -10 0 -5 -4 -10 -10 -10 -5 0 -10 18 -10
40 0 38 -2 40 -30 40 -31 0 -42 23 -17 34 10 5 10 7 0 12 -7 3 -13 14 -13 25
0 12 -7 19 -17 18 -11 0 -13 -3 -5 -6 17 -7 5 -23 -18 -23 -11 0 -22 -11 -28
-28 -9 -27 -8 -29 16 -24 16 3 23 1 18 -6 -3 -6 -21 -9 -39 -6 -94 11 -114 28
-47 39 22 4 40 10 40 15 0 13 -71 17 -117 7 -39 -9 -43 -13 -43 -40 0 -29 1
-29 40 -23 37 6 40 4 40 -16 0 -17 -10 -27 -40 -40 l-40 -17 0 30 c0 19 -5 29
-15 29 -24 0 -31 -31 -10 -46 17 -13 14 -14 -25 -14 -38 0 -49 5 -80 39 -27
28 -41 37 -51 30 -8 -5 -24 -9 -36 -9 -13 0 -23 -4 -23 -9 0 -5 9 -7 20 -4 11
3 27 -1 36 -8 14 -12 14 -14 -2 -26 -16 -11 -12 -13 27 -13 39 -1 42 -2 26
-14 -18 -14 -18 -15 0 -25 14 -8 7 -10 -36 -11 -44 0 -52 3 -47 16 5 13 -4 15
-56 13 -40 -2 -63 2 -66 9 -2 7 -17 12 -33 12 -25 0 -29 4 -29 26 0 15 -10 35
-22 45 -11 11 -19 22 -15 25 9 9 57 -42 57 -61 0 -10 10 -15 30 -15 27 0 30 3
30 30 0 17 -4 30 -10 30 -5 0 -10 18 -10 39 0 37 -2 40 -33 44 -29 3 -29 4 8
5 57 2 72 -9 57 -43 -18 -40 -15 -45 29 -45 44 0 43 -4 23 60 -4 12 -2 20 5
20 6 0 11 5 11 10 0 6 -18 10 -40 10 -22 0 -40 5 -40 10 0 6 -18 10 -40 10
-33 0 -40 3 -40 20 0 16 7 20 31 20 17 0 28 4 24 10 -8 13 -55 13 -55 0 0 -5
-7 -10 -15 -10 -10 0 -15 -10 -15 -34 0 -19 -4 -46 -10 -60 -11 -30 -40 -35
-40 -7 0 17 -8 20 -47 23 -50 3 -50 3 2 46 20 17 19 25 -5 40 -17 10 -23 10
-35 -2 -10 -9 -11 -17 -5 -21 16 -10 12 -25 -7 -25 -29 1 -63 36 -63 64 0 24
4 26 41 26 36 0 41 3 36 19 -3 14 -1 18 9 14 10 -3 14 2 14 19 0 13 9 29 20
36 20 12 20 12 0 32 -24 24 -40 26 -40 5 0 -8 5 -15 10 -15 6 0 10 -7 10 -16
0 -11 -6 -14 -20 -9 -14 5 -20 2 -20 -10 0 -8 -8 -19 -17 -22 -10 -4 -25 -15
-34 -25 -13 -14 -31 -18 -83 -18 -37 0 -66 4 -66 10 0 6 -8 10 -17 10 -17 -1
-17 -1 -1 -14 10 -7 18 -25 18 -40 0 -21 -5 -26 -25 -26 -14 0 -25 6 -25 13 0
13 -55 39 -64 29 -10 -9 -7 -42 4 -42 6 0 10 -7 10 -15 0 -9 7 -18 15 -21 8
-3 24 -22 36 -42 17 -28 24 -33 27 -19 2 9 10 17 18 17 19 0 64 -45 64 -63 0
-17 -53 -77 -68 -77 -6 0 -13 -6 -16 -12 -3 -9 -12 -4 -28 14 -13 15 -36 32
-53 39 -27 12 -28 13 -8 16 14 3 20 9 16 19 -7 19 -83 20 -83 0 0 -8 5 -16 11
-18 9 -3 9 -10 0 -26 -17 -31 -85 -31 -102 0 -9 16 -9 23 0 26 16 5 13 32 -4
32 -8 0 -15 -7 -15 -15 0 -9 -9 -15 -25 -15 -16 0 -25 6 -25 15 0 23 -77 21
-83 -3 -3 -11 -5 -9 -6 8 -2 35 -15 52 -34 44 -10 -3 -17 -1 -17 5 0 6 14 11
30 11 17 0 30 5 30 10 0 6 -33 9 -82 8 -71 -1 -77 -2 -38 -8 43 -7 42 -7 -22
-8 -64 -2 -68 -1 -74 22 -3 14 -12 27 -19 30 -8 3 -11 -2 -8 -13 3 -14 -2 -20
-23 -24 -44 -8 -77 15 -40 29 8 3 11 15 8 30 -2 14 0 24 7 24 6 0 11 -4 11
-10 0 -5 5 -10 11 -10 7 0 8 14 4 40 -6 38 6 57 18 28 3 -7 6 -3 6 10 1 25 -2
26 -46 13 -20 -6 -33 -6 -35 0 -2 6 -14 0 -28 -13 -13 -13 -38 -28 -54 -34
-17 -6 -31 -17 -31 -25 0 -19 -26 -49 -42 -49 -8 0 -19 -11 -25 -25 -6 -14
-18 -25 -27 -25 -14 -1 -14 -2 1 -14 23 -17 13 -26 -27 -26 -18 0 -39 -8 -48
-18 -16 -18 -13 -18 92 -14 l109 4 -22 -46 c-25 -55 -53 -66 -30 -11 18 43 18
45 -4 45 -11 0 -24 -15 -35 -40 -13 -31 -22 -40 -42 -40 -24 0 -35 23 -16 34
16 10 20 46 5 46 -8 0 -14 -9 -14 -21 0 -28 -18 -59 -35 -59 -8 0 -17 15 -21
35 -6 36 -24 58 -24 31 0 -8 -9 -17 -19 -21 -11 -3 -23 -15 -26 -26 -4 -10
-12 -19 -20 -19 -7 0 -15 -4 -17 -8 -2 -5 -20 -12 -41 -15 -32 -5 -37 -3 -37
13 0 14 11 22 40 30 42 11 52 32 23 49 -15 9 -13 10 14 11 23 0 33 6 38 20 3
11 21 24 38 29 31 9 31 10 9 17 -17 5 -20 9 -11 15 10 6 5 11 -16 19 -42 16
-91 15 -120 -4 -30 -20 -45 -20 -45 -1 0 8 -4 15 -9 15 -5 0 -16 3 -25 6 -14
5 -16 -3 -16 -55 0 -37 4 -61 11 -61 14 0 69 55 69 69 0 6 5 11 11 11 6 0 8
-7 5 -16 -3 -9 -9 -28 -12 -42 -8 -37 -36 -102 -44 -102 -3 0 -14 15 -23 33
l-16 32 0 -57 c-1 -41 3 -58 12 -58 7 0 20 -9 29 -19 16 -19 15 -20 -13 -26
l-29 -7 0 -469 0 -469 80 0 c44 0 80 4 80 9 0 5 13 11 30 13 16 3 30 1 30 -4
0 -4 23 -8 50 -8 28 0 50 4 50 8 0 7 57 32 73 32 4 0 7 -11 7 -25 l0 -25 125
0 c77 0 125 4 125 10 0 15 147 13 152 -2 3 -9 12 -8 38 0 22 8 36 9 40 2 9
-14 241 -12 259 3 11 9 15 9 18 0 6 -17 30 -17 36 0 4 9 6 9 6 0 1 -16 81 -18
81 -3 0 6 18 10 40 10 22 0 40 -4 40 -10 0 -5 18 -10 39 -10 33 0 40 4 43 23
4 31 52 31 56 0 3 -23 22 -33 22 -12 0 13 68 42 80 34 5 -3 14 4 20 15 6 12
21 20 35 20 21 0 25 5 25 30 0 17 4 30 9 30 5 0 13 9 16 21 4 11 18 25 31 31
15 7 24 20 24 35 0 23 2 23 68 19 38 -3 52 -2 32 2 -59 12 -51 61 10 62 14 0
20 3 14 8 -8 5 -1 20 22 46 l34 39 0 -41 c0 -35 -3 -42 -19 -42 -17 0 -20 -8
-23 -47 -3 -48 -3 -48 -44 -54 -23 -3 -49 -12 -58 -21 -8 -9 -19 -18 -23 -20
-5 -1 -27 -26 -50 -53 -40 -49 -41 -52 -25 -73 11 -14 27 -21 47 -21 17 0 71
-5 120 -12 116 -15 7104 -24 7119 -9 13 13 56 13 56 0 0 -5 13 -10 28 -10 25
0 31 6 42 41 12 35 15 38 21 21 11 -29 38 -34 181 -35 70 0 128 -4 128 -9 0
-13 123 -8 155 7 17 7 24 14 18 14 -7 1 -13 8 -13 16 0 8 6 15 13 15 8 0 9 3
1 8 -6 4 -14 29 -16 56 -3 27 -2 43 2 36 5 -8 24 -11 54 -9 27 3 46 0 46 -6 0
-5 5 -3 10 5 9 13 10 13 10 0 0 -13 1 -13 10 0 9 13 10 13 11 0 2 -29 18 65
18 113 l1 47 50 0 50 0 0 60 c0 64 -6 72 -35 40 -11 -12 -31 -20 -52 -20 -18
0 -33 -4 -33 -10 0 -5 -9 -10 -20 -10 -12 0 -20 -7 -20 -16 0 -21 -25 -44 -48
-44 -16 0 -19 5 -14 22 4 15 2 19 -7 13 -8 -4 -10 -17 -7 -31 5 -17 2 -24 -9
-24 -8 0 -15 -9 -15 -20 0 -13 -7 -20 -20 -20 -11 0 -20 -4 -20 -10 0 -5 -7
-10 -15 -10 -8 0 -15 -4 -15 -10 0 -5 -20 -10 -45 -10 l-45 0 0 50 c0 38 4 50
15 50 11 0 15 -11 15 -40 l0 -41 25 25 c25 25 34 66 15 66 -17 0 -11 18 9 25
21 6 39 44 43 90 2 23 8 30 24 29 19 0 21 4 17 37 -5 32 -2 38 18 44 19 6 28
1 51 -26 15 -18 28 -37 28 -41 0 -4 12 -8 26 -8 20 0 25 4 20 16 -3 9 -9 27
-12 40 -6 23 -19 29 -56 26 -19 -2 -22 16 -12 56 4 14 13 22 28 21 17 -1 17
-2 4 -6 -23 -6 -24 -33 -2 -33 9 0 22 -8 29 -17 9 -12 28 -17 66 -18 59 0 79
-8 79 -31 0 -20 23 -17 40 6 11 15 26 20 59 20 40 0 50 5 78 37 18 20 33 47
33 60 0 14 6 23 15 23 8 0 19 9 25 20 6 11 17 20 25 20 8 0 15 6 15 14 0 7 10
20 22 28 16 11 22 27 26 70 4 51 2 59 -22 81 -29 27 -34 47 -11 47 11 0 15 11
15 39 0 25 -5 41 -15 45 -12 4 -15 -3 -15 -34 0 -38 -26 -110 -40 -110 -12 0
-30 49 -24 65 8 19 -17 75 -33 75 -8 0 -13 -15 -13 -40 l0 -40 -69 0 -68 0 -7
61 c-10 102 -11 99 34 99 l40 0 0 78 c0 66 3 80 20 92 11 8 20 25 20 38 0 13
13 36 28 50 16 15 31 35 35 45 4 10 17 17 32 17 27 0 32 9 13 28 -9 9 -7 16 7
32 14 16 20 17 27 8 6 -10 8 -10 8 0 0 6 7 12 16 12 9 0 14 7 12 18 -3 11 -12
16 -30 15 -30 -2 -38 16 -38 85 0 31 -4 42 -15 42 -8 0 -15 6 -15 14 0 7 7 19
15 26 30 25 14 160 -20 160 -8 0 -15 9 -15 20 0 11 5 20 10 20 6 0 10 33 10
80 0 47 -4 80 -10 80 -5 0 -10 10 -10 23 0 13 -6 29 -12 36 -10 11 -10 14 0
18 7 3 12 22 12 44 0 39 0 39 40 39 33 0 40 -3 40 -20 0 -11 4 -20 9 -20 12 0
21 38 10 42 -4 2 -11 46 -15 99 -6 89 -5 96 13 101 12 3 24 21 32 48 7 23 15
48 18 56 3 10 -2 14 -18 14 l-24 1 24 19 23 20 -23 20 c-13 10 -30 19 -36 20
-8 0 -13 15 -13 40 l0 40 40 0 c40 0 40 0 40 39 0 22 -5 41 -12 44 -10 3 -10
9 0 26 15 26 17 323 2 352 -7 13 -7 19 0 19 13 0 13 36 0 61 -8 14 -7 19 1 19
18 0 8 159 -13 195 -23 38 -22 45 2 45 24 0 26 13 5 30 -21 17 -19 50 3 50 10
1 6 6 -13 14 l-30 14 30 12 30 12 -25 13 c-14 8 -19 14 -12 15 9 0 11 7 7 21
-4 13 0 27 11 40 16 18 16 19 -2 19 -18 1 -18 1 -1 14 9 7 17 19 17 26 0 7 -8
19 -17 26 -17 13 -17 13 0 14 15 0 15 3 5 21 -10 17 -10 23 0 26 9 4 12 649
12 3179 l0 3174 -640 0 c-402 -1 -640 -4 -640 -10 0 -6 -18 -10 -40 -10 -23 0
-40 5 -40 11 0 7 -10 9 -27 4 -34 -9 -141 -10 -150 -1 -4 3 -37 6 -75 6 -67 0
-68 0 -68 -27 -1 -26 -1 -27 -12 -8 -16 30 -16 30 -38 10 -19 -18 -21 -17 -39
4 -16 18 -29 22 -68 20 -26 -1 -54 -7 -62 -13 -11 -8 -15 -8 -18 2 -3 8 -26
12 -69 12 -54 0 -64 -3 -64 -17 -1 -17 -1 -17 -14 0 -9 11 -27 17 -55 17 l-41
0 0 -142z m320 -33 c0 -24 -5 -35 -15 -35 -8 0 -15 -7 -15 -15 0 -9 -9 -15
-25 -15 -17 0 -25 -6 -25 -17 0 -14 -2 -15 -12 -4 -10 11 -10 14 0 18 6 3 12
16 12 29 0 15 6 24 15 24 8 0 15 6 15 13 0 10 8 17 48 36 1 0 2 -15 2 -34z
m160 25 c0 -5 -5 -10 -11 -10 -5 0 -7 5 -4 10 3 6 8 10 11 10 2 0 4 -4 4 -10z
m-767 -110 c-3 -11 -7 -20 -9 -20 -2 0 -4 9 -4 20 0 11 4 20 9 20 5 0 7 -9 4
-20z m102 -5 c30 -29 31 -39 5 -68 -18 -18 -22 -19 -30 -7 -6 9 -6 16 0 18 16
6 11 42 -5 42 -8 0 -15 -9 -15 -19 0 -40 -15 -27 -18 15 -2 39 0 44 18 44 12
0 32 -11 45 -25z m265 10 c0 -8 -2 -15 -4 -15 -2 0 -6 7 -10 15 -3 8 -1 15 4
15 6 0 10 -7 10 -15z m99 -53 c14 -12 13 -13 -7 -8 -26 5 -62 -23 -62 -49 0
-8 -7 -15 -15 -15 -10 0 -15 10 -15 29 0 24 5 30 30 35 20 4 30 11 30 24 0 26
14 38 19 16 2 -10 11 -25 20 -32z m127 -17 c-16 -17 -66 -21 -66 -5 0 6 11 10
25 10 14 0 25 6 25 13 0 7 6 19 13 26 10 10 13 8 15 -8 2 -12 -3 -28 -12 -36z
m-206 41 c0 -3 -4 -8 -10 -11 -5 -3 -10 -1 -10 4 0 6 5 11 10 11 6 0 10 -2 10
-4z m-180 -60 c0 -80 -27 -108 -63 -66 -24 28 -21 49 8 56 14 3 25 12 25 20 0
8 7 14 15 14 9 0 15 -9 15 -24z m110 11 c0 -8 -9 -22 -20 -32 -23 -20 -24 -17
-10 19 10 27 30 35 30 13z m-330 -27 c0 -16 -6 -20 -32 -19 -31 0 -32 1 -10
11 12 6 22 15 22 20 0 4 5 8 10 8 6 0 10 -9 10 -20z m76 -36 c-3 -7 0 -16 6
-20 7 -4 6 -9 -3 -15 -10 -6 -16 -2 -20 14 -7 27 0 49 13 41 5 -3 7 -12 4 -20z
m-116 -19 c0 -8 -4 -15 -9 -15 -5 0 -14 7 -21 15 -10 13 -9 15 9 15 12 0 21
-6 21 -15z m400 2 c0 -7 -13 -18 -30 -24 -28 -11 -30 -10 -30 13 0 20 5 24 30
24 18 0 30 -5 30 -13z m-430 -36 c0 -12 -29 -23 -41 -15 -5 3 -7 10 -4 15 8
12 45 12 45 0z m230 -22 c0 -5 -4 -9 -10 -9 -5 0 -10 7 -10 16 0 8 5 12 10 9
6 -3 10 -10 10 -16z m-310 -59 c12 -8 11 -10 -7 -10 -13 0 -23 5 -23 10 0 13
11 13 30 0z m18 -42 c-6 -18 -25 -20 -31 -3 -5 10 0 15 14 15 12 0 19 -5 17
-12z m-48 -78 c0 -5 -7 -10 -15 -10 -8 0 -15 5 -15 10 0 6 7 10 15 10 8 0 15
-4 15 -10z m333 4 c-7 -3 -13 -12 -13 -21 0 -19 -34 -13 -38 7 -2 11 7 16 30
17 18 1 27 -1 21 -3z m-493 -34 c0 -17 -7 -20 -40 -20 -33 0 -40 3 -40 20 0
17 7 20 40 20 33 0 40 -3 40 -20z m313 -37 c-7 -2 -19 -2 -25 0 -7 3 -2 5 12
5 14 0 19 -2 13 -5z m-323 -20 c0 -10 -4 -25 -10 -33 -7 -11 -11 -9 -19 13
-14 37 -14 37 9 37 12 0 20 -7 20 -17z m-130 -13 c0 -11 -4 -20 -10 -20 -5 0
-10 9 -10 20 0 11 5 20 10 20 6 0 10 -9 10 -20z m83 -67 c-7 -18 -23 -16 -23
2 0 8 -4 15 -9 15 -5 0 -4 11 2 25 l12 25 11 -27 c7 -15 10 -33 7 -40z m77 22
c0 -29 -28 -45 -41 -24 -6 9 -4 15 6 17 8 2 15 10 15 18 0 8 5 14 10 14 6 0
10 -11 10 -25z m-230 -9 c0 -2 -7 -9 -15 -16 -12 -10 -15 -10 -15 4 0 9 7 16
15 16 8 0 15 -2 15 -4z m90 -6 c0 -5 -4 -10 -10 -10 -5 0 -10 -7 -10 -15 0 -8
-4 -15 -10 -15 -14 0 -13 18 3 35 14 17 27 19 27 5z m-109 -90 c5 0 9 5 9 10
0 6 9 10 20 10 11 0 20 -4 20 -10 0 -5 -7 -10 -16 -10 -8 0 -22 -6 -30 -14 -8
-8 -14 -22 -14 -30 0 -12 -10 -16 -40 -16 -23 0 -40 -5 -40 -11 0 -8 -5 -8
-15 1 -9 7 -15 29 -15 51 0 28 4 39 15 39 8 0 15 -9 15 -20 0 -28 10 -25 45
13 29 32 30 32 33 10 2 -13 8 -23 13 -23z m149 30 c0 -11 -6 -20 -14 -20 -9 0
-12 7 -9 20 3 11 9 20 14 20 5 0 9 -9 9 -20z m-50 -48 c0 -23 -39 -45 -70 -40
l-22 3 25 28 c30 31 67 36 67 9z m-230 -59 c0 -28 -13 -38 -45 -38 -20 0 -30
5 -30 15 0 9 9 15 24 15 14 0 26 6 29 13 6 18 22 14 22 -5z m308 -171 c2 -15
-2 -22 -12 -22 -11 0 -16 9 -16 26 0 31 23 28 28 -4z m-248 -148 c0 -8 -4 -12
-10 -9 -5 3 -10 10 -10 16 0 5 5 9 10 9 6 0 10 -7 10 -16z m174 1 c-6 -16 -24
-21 -24 -7 0 11 11 22 21 22 5 0 6 -7 3 -15z m-46 -17 c-6 -18 -28 -21 -28 -4
0 9 7 16 16 16 9 0 14 -5 12 -12z m-44 -32 c1 -10 9 -21 16 -26 8 -5 11 -12 7
-16 -3 -4 -13 -2 -20 5 -12 9 -13 7 -9 -14 2 -15 0 -25 -7 -25 -6 0 -11 -5
-11 -11 0 -5 4 -7 10 -4 5 3 8 0 5 -7 -3 -7 -16 -14 -30 -14 -14 -1 -23 2 -20
6 3 4 -2 10 -10 14 -15 5 -22 57 -7 54 14 -3 42 14 37 23 -3 4 0 17 7 28 13
22 28 15 32 -13z m143 18 c-3 -3 -12 -4 -19 -1 -8 3 -5 6 6 6 11 1 17 -2 13
-5z m21 -23 c20 -2 14 -39 -10 -55 -26 -19 -35 -14 -43 24 -3 16 -14 31 -23
33 -15 4 37 3 76 -2z m-29 -84 c11 -3 10 -5 -5 -6 -22 -1 -45 35 -43 67 1 9 8
0 16 -20 8 -20 23 -39 32 -41z m114 46 c-7 -2 -19 -2 -25 0 -7 3 -2 5 12 5 14
0 19 -2 13 -5z m-181 -35 c-6 -6 -12 -4 -16 7 -3 9 -2 13 4 10 6 -3 10 0 11 7
0 10 2 10 6 0 3 -8 1 -18 -5 -24z m-42 7 c0 -8 -4 -15 -10 -15 -5 0 -10 7 -10
15 0 8 5 15 10 15 6 0 10 -7 10 -15z m-143 -57 c-3 -7 -5 -2 -5 12 0 14 2 19
5 13 2 -7 2 -19 0 -25z m60 -14 c-3 -3 -12 -4 -19 -1 -8 3 -5 6 6 6 11 1 17
-2 13 -5z m-1417 -314 c0 -11 -3 -20 -7 -20 -5 0 -18 -3 -30 -6 -18 -5 -23 -2
-23 14 0 19 14 28 48 31 6 0 12 -8 12 -19z m-120 -24 c0 -18 -15 -36 -31 -36
-18 0 -26 20 -12 33 7 8 43 10 43 3z m2725 -22 c0 -10 -8 -20 -17 -22 -18 -3
-26 27 -11 42 12 11 28 0 28 -20z m-2417 -41 c-2 -57 -2 -57 -5 -10 -4 40 -7
47 -26 48 -21 0 -21 1 -2 9 33 14 35 12 33 -47z m2112 17 c-6 -4 -10 -11 -9
-16 5 -30 -1 -37 -19 -21 -10 10 -22 14 -25 10 -4 -3 -7 3 -7 15 0 12 5 22 11
22 5 0 8 4 4 10 -3 5 8 5 26 -2 19 -6 26 -13 19 -18z m-2534 8 c7 -10 -20 -38
-38 -38 -10 0 -11 34 -1 43 10 11 31 8 39 -5z m2654 -21 c0 -19 -10 -27 -25
-20 -17 6 -8 33 11 33 8 0 14 -6 14 -13z m-2400 -7 c-8 -5 -22 -9 -30 -9 -10
0 -8 3 5 9 27 12 43 12 25 0z m-420 -25 c0 -16 -43 -31 -59 -20 -19 11 -12 24
17 28 15 2 30 5 35 6 4 0 7 -6 7 -14z m40 5 c0 -5 -4 -10 -9 -10 -6 0 -13 5
-16 10 -3 6 1 10 9 10 9 0 16 -4 16 -10z m-156 -35 c3 -8 4 -15 3 -15 -1 0
-17 -4 -35 -9 -28 -8 -32 -7 -32 9 0 17 14 26 46 29 7 0 14 -6 18 -14z m2678
-7 c8 -21 -2 -38 -23 -38 -19 0 -27 29 -12 43 11 11 31 8 35 -5z m-166 -142
c10 -21 9 -24 -5 -19 -25 9 -41 24 -35 34 10 16 29 9 40 -15z m-3606 -98 c-23
-18 -51 -23 -64 -11 -9 10 56 41 73 35 11 -4 9 -10 -9 -24z m3516 17 c-3 -10
1 -15 12 -16 13 0 11 -3 -5 -9 -13 -5 -23 -13 -23 -19 0 -5 -9 -11 -19 -14
-14 -3 -18 -1 -14 9 3 8 10 11 17 8 6 -3 3 1 -7 9 -17 14 -16 15 8 21 14 4 25
11 25 16 0 6 3 10 6 10 3 0 4 -7 0 -15z m-269 -168 c-4 -10 -13 -13 -26 -10
-25 6 -25 7 -9 33 11 17 15 18 27 6 7 -8 11 -21 8 -29z m1139 -88 c10 -17 -13
-36 -27 -22 -12 12 -4 33 11 33 5 0 12 -5 16 -11z m-1388 -86 c-10 -2 -26 -2
-35 0 -10 3 -2 5 17 5 19 0 27 -2 18 -5z m162 -63 c0 -5 -4 -10 -10 -10 -5 0
-10 5 -10 10 0 6 5 10 10 10 6 0 10 -4 10 -10z m200 -4 c0 -3 -4 -8 -10 -11
-5 -3 -10 -1 -10 4 0 6 5 11 10 11 6 0 10 -2 10 -4z m-4790 -85 c0 -5 -7 -12
-16 -15 -22 -9 -24 -8 -24 9 0 8 9 15 20 15 11 0 20 -4 20 -9z m-120 -15 c0
-2 -7 -7 -16 -10 -8 -3 -12 -2 -9 4 6 10 25 14 25 6z m4680 -21 c-7 -8 -17
-15 -23 -15 -5 0 -2 9 8 20 21 23 35 19 15 -5z m1185 15 c10 -17 -16 -41 -39
-38 -30 4 -33 35 -4 41 13 2 26 5 30 6 4 0 10 -4 13 -9z m-5971 -29 c7 -11
-22 -36 -31 -27 -3 3 -1 6 5 6 7 0 12 5 12 11 0 5 -4 7 -10 4 -5 -3 -10 -1
-10 4 0 13 27 15 34 2z m4801 -22 c10 -15 -1 -23 -20 -15 -9 3 -13 10 -10 16
8 13 22 13 30 -1z m1065 -108 c0 -12 -9 -20 -25 -23 -13 -3 -23 -2 -21 1 1 3
6 14 9 24 8 23 37 22 37 -2z m-35 -349 c0 -18 -20 -15 -23 4 -3 10 1 15 10 12
7 -3 13 -10 13 -16z m373 -101 c-5 -39 -50 -42 -67 -4 -7 15 -10 25 -6 21 4
-4 17 -1 27 7 28 19 50 8 46 -24z m-318 -101 c0 -13 -7 -20 -20 -20 -13 0 -20
7 -20 20 0 13 7 20 20 20 13 0 20 -7 20 -20z m300 10 c0 -5 -5 -10 -11 -10 -5
0 -7 5 -4 10 3 6 8 10 11 10 2 0 4 -4 4 -10z m-82 -79 c-4 -20 -48 -28 -48 -9
0 20 20 37 37 31 8 -3 13 -13 11 -22z m-88 -61 c0 -5 -4 -10 -10 -10 -5 0 -10
5 -10 10 0 6 5 10 10 10 6 0 10 -4 10 -10z m-455 -61 c10 -15 -1 -23 -20 -15
-9 3 -13 10 -10 16 8 13 22 13 30 -1z m623 -27 c16 -10 5 -42 -14 -42 -8 0
-14 10 -14 25 0 26 7 30 28 17z m-379 -31 c12 -8 8 -11 -15 -16 -16 -4 -34 -8
-40 -10 -7 -2 -10 4 -7 16 6 20 38 25 62 10z m136 -52 c12 -12 -10 -12 -57 2
-37 10 -45 19 -32 32 7 7 73 -18 89 -34z m115 -70 c23 -22 39 -44 35 -47 -4
-4 -17 5 -29 19 -13 15 -33 32 -45 38 -12 7 -19 16 -16 22 9 13 8 13 55 -32z
m64 -75 c6 -15 4 -15 -11 -3 -10 7 -20 15 -22 16 -2 2 3 3 11 3 9 0 19 -7 22
-16z m254 -1 c-2 -11 -14 -19 -31 -21 -22 -3 -27 1 -27 17 0 17 6 21 31 21 24
0 30 -4 27 -17z m-200 -65 c24 -47 27 -58 13 -58 -5 0 -16 18 -25 40 -9 22
-20 40 -26 40 -5 0 -10 5 -10 10 0 25 27 6 48 -32z m47 -169 c8 -23 1 -34 -14
-24 -13 8 -15 45 -2 45 5 0 13 -9 16 -21z m-2849 -186 c48 -63 166 -113 266
-113 l47 0 20 -67 c31 -108 32 -106 -15 -116 -37 -8 -44 -7 -66 16 -34 34 -96
64 -138 67 -65 5 -98 0 -115 -16 -22 -22 -5 -40 23 -25 11 6 47 11 79 11 47 0
67 -5 101 -27 67 -44 46 -61 -28 -23 -47 24 -93 26 -110 5 -10 -12 -10 -23 2
-53 12 -31 19 -37 43 -37 24 0 31 5 38 32 9 31 10 32 37 18 35 -18 41 -33 30
-78 -4 -20 -6 -38 -3 -40 2 -2 -13 -12 -33 -22 -25 -12 -47 -15 -71 -10 -76
14 -115 64 -115 145 l1 48 -50 6 c-65 9 -79 15 -79 35 -1 41 -80 101 -134 101
l-39 0 7 46 c11 82 21 93 125 130 51 18 103 39 115 47 20 14 21 13 29 -17 5
-17 20 -46 33 -63z m-85 -746 c12 -9 18 -33 21 -82 14 -246 266 -361 500 -229
59 34 73 44 162 118 l46 38 68 -40 c196 -116 243 -211 297 -592 43 -307 43
-314 31 -322 -16 -11 -376 -10 -376 1 0 21 -51 309 -60 344 -10 33 -13 36 -26
23 -7 -8 -14 -24 -14 -36 0 -12 -4 -18 -10 -15 -5 3 -10 -1 -10 -9 0 -8 -9
-20 -19 -26 -12 -6 -22 -25 -26 -52 -11 -74 -14 -78 -56 -84 -21 -4 -39 -10
-39 -15 0 -5 -20 -9 -44 -9 -26 0 -46 -5 -49 -12 -3 -8 -6 -5 -6 6 -1 15 -4
16 -15 7 -17 -14 -139 -6 -144 10 -2 5 -16 9 -31 9 -15 0 -31 4 -37 9 -5 5
-40 16 -79 26 -38 9 -85 23 -104 31 -18 8 -42 14 -52 14 -11 0 -19 3 -19 8 0
8 -87 41 -129 49 -14 2 -29 10 -34 16 -8 12 -3 191 8 237 5 22 4 22 -6 -2 -6
-16 -14 -28 -19 -28 -4 0 -13 -21 -19 -47 -17 -70 -34 -102 -54 -109 -20 -6
-101 39 -163 92 l-39 33 49 93 c27 51 91 177 142 280 121 240 158 275 289 277
28 0 57 -5 66 -12z m1205 -176 c219 -103 336 -227 351 -374 4 -44 2 -55 -16
-71 -13 -12 -21 -14 -21 -7 0 7 -4 10 -9 7 -4 -3 -11 18 -14 46 -9 76 -65 184
-128 246 -53 53 -132 110 -182 133 -15 7 -27 16 -27 21 0 4 -6 8 -12 8 -7 0
-22 7 -32 15 -35 27 4 16 90 -24z m1894 -366 c0 -28 -21 -33 -40 -10 -15 18
-5 35 21 35 14 0 19 -7 19 -25z m-5675 -185 c-11 -5 -27 -9 -35 -9 -9 0 -8 4
5 9 11 5 27 9 35 9 9 0 8 -4 -5 -9z m2025 -180 c0 -5 -2 -10 -4 -10 -3 0 -8 5
-11 10 -3 6 -1 10 4 10 6 0 11 -4 11 -10z m3693 -34 c39 -9 33 -41 -7 -41 -19
0 -34 8 -45 25 -9 14 -11 21 -3 16 8 -5 12 -1 12 11 0 11 3 14 8 7 4 -6 20
-14 35 -18z m-1277 -137 c51 -70 104 -176 103 -208 0 -15 -3 -20 -6 -11 -18
52 -60 125 -107 186 -50 65 -57 84 -35 84 4 0 24 -23 45 -51z m-936 -299 c0
-5 -5 -10 -11 -10 -5 0 -7 5 -4 10 3 6 8 10 11 10 2 0 4 -4 4 -10z m35 0 c3
-5 1 -10 -4 -10 -6 0 -11 5 -11 10 0 6 2 10 4 10 3 0 8 -4 11 -10z m1202 -32
c-3 -8 -6 -5 -6 6 -1 11 2 17 5 13 3 -3 4 -12 1 -19z m108 -168 c4 -6 -17 -9
-57 -8 l-63 1 55 7 c30 4 56 7 57 8 1 1 5 -2 8 -8z m267 -717 c2 -5 36 -30 75
-56 121 -81 173 -158 172 -252 l-1 -50 -14 69 c-20 101 -90 190 -190 241 -21
11 -47 28 -58 38 -16 14 -17 17 -4 17 9 0 18 -3 20 -7z m-5780 -185 c-9 -9
-15 -9 -24 0 -9 9 -7 12 12 12 19 0 21 -3 12 -12z m7648 -197 c0 -18 -18 -21
-30 -6 -10 13 -9 15 9 15 11 0 21 -4 21 -9z m-1650 -21 c0 -17 -31 -72 -37
-67 -7 7 19 77 29 77 4 0 8 -5 8 -10z m1630 -35 c0 -8 -4 -15 -10 -15 -5 0
-10 7 -10 15 0 8 5 15 10 15 6 0 10 -7 10 -15z m-1698 -92 c-24 -33 -89 -95
-77 -73 5 8 26 37 48 63 42 50 63 58 29 10z m1658 -43 c0 -29 -4 -40 -15 -40
-11 0 -15 11 -15 40 0 29 4 40 15 40 11 0 15 -11 15 -40z m-2580 -28 c0 -26
-44 -44 -86 -36 -42 8 -40 23 7 40 52 19 79 17 79 -4z m2620 -27 c0 -8 -4 -15
-10 -15 -5 0 -10 7 -10 15 0 8 5 15 10 15 6 0 10 -7 10 -15z m-1810 -15 c0
-11 -59 -50 -75 -50 -11 1 56 59 68 60 4 0 7 -5 7 -10z m-5955 -60 c3 -5 1
-10 -4 -10 -6 0 -11 5 -11 10 0 6 2 10 4 10 3 0 8 -4 11 -10z m5825 -20 c0
-13 -58 -42 -73 -37 -7 2 6 13 28 25 48 25 45 24 45 12z m-1110 -65 c-7 -8
-17 -15 -23 -15 -5 0 -2 9 8 20 21 23 35 19 15 -5z m990 -12 c0 -7 -40 -23
-115 -47 -11 -3 7 7 40 23 64 32 75 35 75 24z m1954 -38 c4 -10 -1 -15 -14
-15 -20 0 -26 11 -13 23 10 11 20 8 27 -8z m-7464 -19 c8 -3 2 -4 -14 -1 -23
5 -27 3 -23 -9 4 -10 1 -13 -9 -9 -7 3 -14 9 -14 14 0 12 34 29 40 20 3 -5 12
-11 20 -15z m44 -8 c-5 -8 -2 -9 9 -5 9 3 19 2 22 -3 4 -6 1 -10 -5 -10 -6 0
-9 -4 -5 -9 3 -5 1 -12 -4 -15 -12 -8 -61 14 -61 27 0 5 11 2 25 -7 14 -9 25
-12 25 -6 0 6 -7 13 -16 17 -13 5 -13 7 -2 14 18 12 20 11 12 -3z m4321 -18
c27 -10 26 -30 -2 -30 -9 0 -35 -16 -59 -35 -42 -35 -76 -43 -104 -25 -12 7
-11 15 8 53 18 37 26 43 46 40 13 -3 27 0 30 5 7 11 39 8 81 -8z m964 -11 c-8
-5 -23 -9 -34 -8 -18 0 -17 1 5 13 26 15 52 10 29 -5z m-109 -29 c0 -5 -17
-14 -37 -19 -42 -12 -58 -6 -22 7 13 5 31 12 39 15 8 3 16 6 18 6 1 1 2 -3 2
-9z m2270 -50 c0 -29 -4 -40 -15 -40 -11 0 -15 11 -15 40 0 29 4 40 15 40 11
0 15 -11 15 -40z m-2370 20 c0 -5 -5 -10 -11 -10 -5 0 -7 5 -4 10 3 6 8 10 11
10 2 0 4 -4 4 -10z m-4890 -29 c0 -6 -4 -13 -10 -16 -5 -3 -10 1 -10 9 0 9 5
16 10 16 6 0 10 -4 10 -9z m4810 -6 c-43 -16 -60 -18 -60 -6 0 9 32 17 75 19
11 0 5 -5 -15 -13z m-115 -24 c-11 -5 -36 -11 -55 -15 l-35 -6 35 14 c19 8 44
15 55 15 l20 0 -20 -8z m-4555 -31 c0 -5 -4 -10 -9 -10 -6 0 -13 5 -16 10 -3
6 1 10 9 10 9 0 16 -4 16 -10z m4448 -5 c-9 -9 -88 -22 -88 -15 0 10 71 29 83
22 5 -2 7 -6 5 -7z m-158 -34 c0 -10 -69 -25 -77 -17 -3 3 10 9 28 15 45 12
49 13 49 2z m-4185 -21 c-3 -5 -12 -10 -18 -10 -7 0 -6 4 3 10 19 12 23 12 15
0z m-154 -18 c-7 -2 -18 1 -23 6 -8 8 -4 9 13 5 13 -4 18 -8 10 -11z m4199 -1
c0 -8 -83 -31 -112 -31 -24 0 6 16 50 26 63 15 62 15 62 5z m-4197 -18 c-7 -2
-19 -2 -25 0 -7 3 -2 5 12 5 14 0 19 -2 13 -5z m4022 -38 c-30 -14 -84 -20
-72 -9 7 7 65 22 87 22 8 0 2 -6 -15 -13z m3145 -11 c0 -14 -3 -14 -15 -4 -8
7 -15 14 -15 16 0 2 7 4 15 4 8 0 15 -7 15 -16z m-3234 -12 c-3 -5 -36 -21
-73 -37 -37 -15 -90 -38 -118 -51 -42 -19 -228 -82 -375 -126 -40 -12 -62 -27
-55 -38 2 -4 -10 -4 -28 -1 -38 8 -42 32 -7 43 254 76 465 145 545 177 105 42
120 46 111 33z m-3591 -32 c3 -6 -1 -7 -9 -4 -18 7 -21 14 -7 14 6 0 13 -4 16
-10z m-35 -10 c8 -5 11 -10 5 -10 -5 0 -17 5 -25 10 -8 5 -10 10 -5 10 6 0 17
-5 25 -10z m247 -36 c-3 -3 -12 -4 -19 -1 -8 3 -5 6 6 6 11 1 17 -2 13 -5z
m6513 -9 c0 -8 -9 -15 -20 -15 -11 0 -20 7 -20 15 0 8 9 15 20 15 11 0 20 -7
20 -15z m-6403 -11 c-3 -3 -12 -4 -19 -1 -8 3 -5 6 6 6 11 1 17 -2 13 -5z
m-352 -14 c-8 13 -7 13 11 0 10 -8 21 -16 23 -17 2 -2 -10 -3 -27 -3 -23 0
-32 5 -32 16 0 14 2 15 17 3 15 -12 16 -12 8 1z m408 3 c-7 -2 -21 -2 -30 0
-10 3 -4 5 12 5 17 0 24 -2 18 -5z m77 -13 c0 -5 -4 -10 -10 -10 -5 0 -10 5
-10 10 0 6 5 10 10 10 6 0 10 -4 10 -10z m-350 -85 c0 -33 -1 -34 -20 -23 -16
10 -24 10 -40 0 -17 -10 -20 -10 -20 3 0 8 -6 15 -12 16 -10 0 -10 2 0 6 6 2
12 11 12 19 0 10 12 14 40 14 39 0 40 -1 40 -35z m6780 4 c0 -5 -9 -9 -20 -9
-22 0 -27 16 -7 23 15 5 27 -1 27 -14z m-30 -49 c0 -4 -7 -10 -15 -14 -10 -4
-15 1 -15 14 0 13 5 18 15 14 8 -4 15 -10 15 -14z m-6225 -10 c-3 -5 -10 -10
-16 -10 -5 0 -9 5 -9 10 0 6 7 10 16 10 8 0 12 -4 9 -10z m32 -36 c-3 -3 -12
-4 -19 -1 -8 3 -5 6 6 6 11 1 17 -2 13 -5z m5788 -64 c3 -5 -1 -10 -9 -10 -9
0 -16 5 -16 10 0 6 4 10 9 10 6 0 13 -4 16 -10z m-7385 -50 c0 -5 -7 -10 -15
-10 -8 0 -15 5 -15 10 0 6 7 10 15 10 8 0 15 -4 15 -10z m-1763 -46 c-3 -3
-12 -4 -19 -1 -8 3 -5 6 6 6 11 1 17 -2 13 -5z m9143 -9 c0 -8 -4 -15 -10 -15
-5 0 -10 7 -10 15 0 8 5 15 10 15 6 0 10 -7 10 -15z m-5703 -37 c-3 -7 -5 -2
-5 12 0 14 2 19 5 13 2 -7 2 -19 0 -25z m5642 -15 c1 -7 -6 -13 -14 -13 -17 0
-18 4 -8 39 6 23 7 23 14 5 4 -10 8 -25 8 -31z m-8283 -10 c-11 -11 -17 4 -9
23 7 18 8 18 11 1 2 -10 1 -21 -2 -24z m104 27 c0 -5 -4 -10 -10 -10 -5 0 -10
5 -10 10 0 6 5 10 10 10 6 0 10 -4 10 -10z m1100 -15 c0 -8 -7 -15 -15 -15 -8
0 -15 7 -15 15 0 8 7 15 15 15 8 0 15 -7 15 -15z m1600 5 c0 -5 -4 -10 -9 -10
-6 0 -13 5 -16 10 -3 6 1 10 9 10 9 0 16 -4 16 -10z m-3603 -16 c-3 -3 -12 -4
-19 -1 -8 3 -5 6 6 6 11 1 17 -2 13 -5z m9163 -40 c0 -8 -4 -14 -10 -14 -5 0
-10 9 -10 21 0 11 5 17 10 14 6 -3 10 -13 10 -21z m-9240 6 c0 -5 -18 -10 -40
-10 -22 0 -40 5 -40 10 0 6 18 10 40 10 22 0 40 -4 40 -10z m1040 -25 c0 -16
-6 -25 -15 -25 -18 0 -18 5 -5 31 14 26 20 24 20 -6z m2560 5 c0 -13 -5 -18
-15 -14 -16 7 -19 17 -8 27 12 13 23 7 23 -13z m-1520 -5 c0 -8 -4 -15 -10
-15 -5 0 -10 7 -10 15 0 8 5 15 10 15 6 0 10 -7 10 -15z m-1715 -15 c3 -5 -3
-10 -14 -10 -12 0 -21 5 -21 10 0 6 6 10 14 10 8 0 18 -4 21 -10z m630 -18
c-3 -3 -11 0 -18 7 -9 10 -8 11 6 5 10 -3 15 -9 12 -12z m-35 -11 c0 -10 -7
-22 -16 -25 -20 -8 -19 -8 -28 22 -6 19 -4 22 18 22 19 0 26 -5 26 -19z m2620
10 c0 -5 -7 -11 -15 -15 -9 -3 -15 0 -15 9 0 8 7 15 15 15 8 0 15 -4 15 -9z
m5600 -1 c0 -5 -4 -10 -10 -10 -5 0 -10 5 -10 10 0 6 5 10 10 10 6 0 10 -4 10
-10z m-8100 -20 c0 -5 -2 -10 -4 -10 -3 0 -8 5 -11 10 -3 6 -1 10 4 10 6 0 11
-4 11 -10z m1090 0 c0 -5 -17 -10 -37 -9 -31 0 -34 2 -18 9 28 12 55 12 55 0z
m157 -12 c-3 -8 -6 -5 -6 6 -1 11 2 17 5 13 3 -3 4 -12 1 -19z m160 -30 c-3
-8 -6 -5 -6 6 -1 11 2 17 5 13 3 -3 4 -12 1 -19z m70 0 c-3 -8 -6 -5 -6 6 -1
11 2 17 5 13 3 -3 4 -12 1 -19z m203 7 l25 -14 -32 -1 c-23 0 -33 5 -33 15 0
18 8 18 40 0z m-1620 -5 c0 -5 -4 -10 -10 -10 -5 0 -10 5 -10 10 0 6 5 10 10
10 6 0 10 -4 10 -10z m-60 -21 c0 -5 -9 -9 -20 -9 -11 0 -20 6 -20 14 0 9 7
12 20 9 11 -3 20 -9 20 -14z m1317 15 c-3 -3 -12 -4 -19 -1 -8 3 -5 6 6 6 11
1 17 -2 13 -5z m-2655 -39 c-5 -41 -22 -37 -22 6 0 17 5 29 13 29 9 0 12 -11
9 -35z m1138 25 c0 -5 -4 -10 -10 -10 -5 0 -10 5 -10 10 0 6 5 10 10 10 6 0
10 -4 10 -10z m306 -4 c18 -19 18 -40 -1 -56 -13 -11 -19 -9 -35 10 -15 18
-20 19 -20 7 0 -9 -5 -19 -11 -23 -9 -5 -10 1 -5 22 14 53 42 69 72 40z m674
10 c0 -11 -19 -15 -25 -6 -3 5 1 10 9 10 9 0 16 -2 16 -4z m325 -6 c3 -5 14
-10 24 -10 14 0 17 -6 14 -24 -9 -45 -93 -45 -93 0 0 15 6 24 15 24 8 0 15 5
15 10 0 6 4 10 9 10 6 0 13 -4 16 -10z m75 1 c0 -5 12 -12 28 -16 31 -7 73
-55 48 -55 -8 0 -16 6 -19 13 -4 10 -7 10 -18 0 -7 -7 -27 -13 -43 -13 l-31 0
25 20 c22 17 23 19 7 25 -18 8 -24 35 -7 35 6 0 10 -4 10 -9z m700 -1 c0 -5
-9 -10 -19 -10 -11 0 -23 5 -26 10 -4 6 5 10 19 10 14 0 26 -4 26 -10z m-3020
-10 c0 -5 -4 -10 -10 -10 -5 0 -10 5 -10 10 0 6 5 10 10 10 6 0 10 -4 10 -10z
m2530 -40 c0 -11 -4 -20 -9 -20 -5 0 -11 9 -14 20 -3 13 0 20 9 20 8 0 14 -9
14 -20z m-2470 0 c0 -5 -4 -10 -10 -10 -5 0 -10 5 -10 10 0 6 5 10 10 10 6 0
10 -4 10 -10z m1367 -10 c10 -13 7 -16 -20 -17 -18 -1 -39 -3 -47 -5 -8 -2
-17 1 -20 6 -3 6 8 11 23 11 15 1 33 7 39 13 7 7 12 11 13 9 0 -1 6 -9 12 -17z
m-547 0 c0 -5 -9 -10 -20 -10 -11 0 -20 5 -20 10 0 6 9 10 20 10 11 0 20 -4
20 -10z m409 -4 c10 -12 8 -13 -8 -9 -12 3 -21 9 -21 14 0 14 16 11 29 -5z
m-949 -10 c0 -2 -11 -15 -25 -30 -17 -19 -34 -26 -60 -26 -31 0 -35 -3 -35
-26 0 -14 -5 -34 -10 -45 -17 -31 9 -49 71 -49 l52 0 -26 -26 c-27 -27 -28
-44 -2 -44 7 0 17 9 20 20 7 22 43 46 53 35 3 -3 1 -15 -6 -26 -17 -26 -7 -39
28 -39 39 0 45 -14 13 -29 -20 -9 -30 -9 -48 3 -20 13 -25 13 -35 1 -10 -12
-9 -15 8 -15 12 0 24 -4 27 -10 9 -15 95 -13 95 2 0 8 6 6 17 -4 13 -14 14
-20 3 -33 -11 -14 -14 -14 -25 2 -20 27 -69 7 -73 -30 -2 -17 1 -27 9 -27 10
0 10 -3 1 -12 -17 -17 -15 -26 6 -30 13 -3 12 -5 -7 -10 -21 -6 -23 -4 -18 20
5 26 4 27 -34 27 -30 0 -38 -3 -34 -14 3 -7 3 -29 -1 -48 -5 -27 -14 -37 -42
-49 -20 -8 -39 -20 -43 -26 -4 -6 -13 1 -23 20 -22 43 -21 44 27 37 l42 -7 -3
46 c-3 37 -8 46 -23 46 -12 0 -19 -7 -19 -20 0 -24 -22 -26 -40 -5 -7 8 -19
15 -26 15 -8 0 -14 10 -14 25 0 21 -5 25 -30 25 -23 0 -30 -4 -30 -20 0 -11
-4 -20 -10 -20 -5 0 -10 9 -10 20 0 11 5 20 10 20 6 0 10 9 10 20 0 11 -4 20
-10 20 -5 0 -10 -4 -10 -10 0 -5 -5 -10 -11 -10 -6 0 -24 -13 -39 -30 -23 -25
-70 -42 -70 -25 0 2 19 22 42 44 35 34 39 43 28 56 -8 10 -29 15 -61 15 -27 0
-49 4 -49 10 0 5 -6 7 -13 4 -8 -3 -20 2 -27 11 -10 12 -16 13 -26 4 -10 -8
-14 -8 -14 0 0 6 -7 11 -15 11 -19 0 -19 14 0 30 17 14 20 50 5 50 -18 0 -10
39 12 60 12 11 16 20 10 20 -7 0 -12 5 -12 10 0 6 47 10 120 10 66 0 120 4
120 8 0 4 -9 14 -20 22 -11 8 -20 18 -20 21 0 4 72 8 160 8 88 0 160 -1 160
-3z m1270 -6 c0 -5 -2 -10 -4 -10 -3 0 -8 5 -11 10 -3 6 -1 10 4 10 6 0 11 -4
11 -10z m877 4 c-3 -3 -12 -4 -19 -1 -8 3 -5 6 6 6 11 1 17 -2 13 -5z m93 -24
c0 -33 -11 -38 -30 -15 -15 18 -6 45 15 45 10 0 15 -10 15 -30z m120 20 c0 -7
-14 -8 -37 -4 -52 9 -54 14 -5 14 23 0 42 -5 42 -10z m6960 -70 l0 -80 -45 0
c-31 0 -47 -5 -54 -17 -10 -17 -12 -17 -25 0 -7 9 -16 17 -19 17 -3 0 -7 -8
-9 -17 -2 -10 -3 12 -3 49 l0 68 38 0 c23 0 36 -4 32 -10 -3 -5 -2 -10 4 -10
5 0 11 6 14 13 3 10 9 10 26 0 24 -15 31 -16 30 -5 -3 18 1 72 6 72 3 0 5 -36
5 -80z m-7043 28 c-3 -8 -6 -5 -6 6 -1 11 2 17 5 13 3 -3 4 -12 1 -19z m-127
-4 c0 -2 -7 -4 -15 -4 -8 0 -15 4 -15 10 0 5 7 7 15 4 8 -4 15 -8 15 -10z
m213 -4 c-3 -12 -12 -20 -21 -18 -25 5 -25 26 0 31 13 2 24 5 25 6 0 0 -1 -8
-4 -19z m123 6 c18 -18 18 -26 0 -26 -7 0 -16 9 -19 20 -6 24 -1 25 19 6z
m-3066 -15 c0 -6 -4 -13 -10 -16 -5 -3 -10 1 -10 9 0 9 5 16 10 16 6 0 10 -4
10 -9z m1660 -1 c0 -5 -7 -10 -16 -10 -8 0 -12 5 -9 10 3 6 10 10 16 10 5 0 9
-4 9 -10z m-1760 -20 c0 -5 -2 -10 -4 -10 -3 0 -8 5 -11 10 -3 6 -1 10 4 10 6
0 11 -4 11 -10z m2480 -19 c0 -4 -11 -14 -25 -21 -36 -19 -56 1 -31 29 14 16
23 18 37 10 11 -5 19 -13 19 -18z m460 25 c0 -3 -4 -8 -10 -11 -5 -3 -10 -1
-10 4 0 6 5 11 10 11 6 0 10 -2 10 -4z m40 0 c0 -3 -4 -8 -10 -11 -5 -3 -10
-1 -10 4 0 6 5 11 10 11 6 0 10 -2 10 -4z m140 -6 c0 -5 -2 -10 -4 -10 -3 0
-8 5 -11 10 -3 6 -1 10 4 10 6 0 11 -4 11 -10z m-3040 -50 c0 -18 -7 -20 -58
-20 -45 0 -61 4 -75 20 -17 20 -16 20 58 20 68 0 75 -2 75 -20z m1680 -10 c0
-5 -5 -10 -11 -10 -5 0 -7 5 -4 10 3 6 8 10 11 10 2 0 4 -4 4 -10z m114 1 c4
-5 -1 -8 -9 -7 -21 3 -31 16 -12 16 9 0 18 -4 21 -9z m522 -48 c-11 -11 -19 6
-11 24 8 17 8 17 12 0 3 -10 2 -21 -1 -24z m129 7 c-3 -5 -15 -10 -26 -10 -11
0 -17 5 -14 10 3 6 15 10 26 10 11 0 17 -4 14 -10z m7315 -50 c0 -34 -3 -40
-21 -40 -19 0 -19 -1 -5 -16 22 -22 21 -24 -20 -24 -33 0 -36 2 -29 23 3 12 9
33 12 47 8 32 24 49 46 50 13 0 17 -8 17 -40z m-7345 -20 c3 -5 1 -10 -4 -10
-6 0 -11 5 -11 10 0 6 2 10 4 10 3 0 8 -4 11 -10z m7247 -32 c-12 -25 -17 -29
-20 -16 -2 10 3 24 10 32 22 26 27 18 10 -16z m-6452 2 c0 -5 -2 -10 -4 -10
-3 0 -8 5 -11 10 -3 6 -1 10 4 10 6 0 11 -4 11 -10z m-3065 -20 c3 -5 -1 -10
-10 -10 -9 0 -13 5 -10 10 3 6 8 10 10 10 2 0 7 -4 10 -10z m9483 -37 c-10 -2
-26 -2 -35 0 -10 3 -2 5 17 5 19 0 27 -2 18 -5z m-7178 -67 c0 -24 -16 -27
-35 -6 -18 19 -17 20 8 20 17 0 27 -5 27 -14z m83 7 c-7 -2 -19 -2 -25 0 -7 3
-2 5 12 5 14 0 19 -2 13 -5z m11 -42 c8 -12 -20 -22 -39 -15 -19 8 -9 24 15
24 10 0 21 -4 24 -9z m284 -3 c-6 -18 -28 -21 -28 -4 0 9 7 16 16 16 9 0 14
-5 12 -12z m-2140 -34 c2 -1 1 -12 -3 -23 -8 -27 -35 -27 -42 -1 -3 11 -13 20
-22 20 -9 0 -23 5 -31 10 -10 7 2 8 40 4 30 -4 57 -8 58 -10z m2032 -15 c0
-15 -5 -15 -40 -7 -52 13 -52 28 0 25 29 -1 40 -6 40 -18z m37 15 c-3 -3 -12
-4 -19 -1 -8 3 -5 6 6 6 11 1 17 -2 13 -5z m-2601 -31 c-10 -10 -19 5 -10 18
6 11 8 11 12 0 2 -7 1 -15 -2 -18z m227 20 c-13 -2 -33 -2 -45 0 -13 2 -3 4
22 4 25 0 35 -2 23 -4z m1495 -25 c-7 -19 -38 -22 -38 -4 0 10 9 16 21 16 12
0 19 -5 17 -12z m-1238 -14 c0 -11 -5 -14 -16 -10 -9 3 -21 6 -27 6 -16 0 14
20 31 20 6 0 12 -7 12 -16z m1197 -20 c-3 -3 -12 -4 -19 -1 -8 3 -5 6 6 6 11
1 17 -2 13 -5z m-1397 -37 c0 -5 -7 -6 -16 -3 -9 3 -18 6 -20 6 -2 0 -4 7 -4
15 0 13 3 13 20 3 11 -7 20 -17 20 -21z m40 23 c0 -5 -2 -10 -4 -10 -3 0 -8 5
-11 10 -3 6 -1 10 4 10 6 0 11 -4 11 -10z m1040 -4 c0 -7 9 -16 21 -19 11 -3
23 -15 26 -26 3 -12 12 -21 19 -21 8 0 14 -9 14 -20 0 -11 -7 -20 -15 -20 -9
0 -15 -9 -15 -21 0 -21 0 -21 -25 2 -13 13 -25 32 -25 42 0 9 -4 17 -10 17 -5
0 -10 18 -10 40 0 22 5 40 10 40 6 0 10 -6 10 -14z m1197 8 c-3 -3 -12 -4 -19
-1 -8 3 -5 6 6 6 11 1 17 -2 13 -5z m6640 0 c-3 -3 -12 -4 -19 -1 -8 3 -5 6 6
6 11 1 17 -2 13 -5z m-8761 -48 c-3 -14 -13 -26 -21 -26 -8 0 -15 -9 -15 -20
0 -13 -7 -20 -20 -20 -13 0 -20 -7 -20 -20 0 -13 7 -20 20 -20 11 0 20 5 20
10 0 6 18 10 40 10 38 0 40 -2 40 -30 0 -28 -2 -30 -40 -30 -33 0 -40 -3 -40
-20 0 -19 -7 -20 -100 -20 l-100 0 0 40 c0 38 2 40 29 40 43 0 61 10 73 39 6
15 12 21 15 14 3 -7 13 -13 24 -13 13 0 19 7 19 24 0 27 32 66 38 47 6 -18 22
-2 22 22 0 15 3 18 11 10 7 -7 9 -23 5 -37z m444 -1 c0 -18 5 -25 20 -25 16 0
20 -7 20 -30 0 -23 4 -30 20 -30 11 0 20 -4 20 -10 0 -5 -9 -10 -20 -10 -11 0
-20 5 -20 10 0 6 -9 10 -20 10 -11 0 -20 -4 -20 -10 0 -5 -4 -10 -10 -10 -6 0
-10 28 -10 65 0 37 4 65 10 65 6 0 10 -11 10 -25z m1620 15 c0 -5 -4 -10 -10
-10 -5 0 -10 5 -10 10 0 6 5 10 10 10 6 0 10 -4 10 -10z m-2260 -10 c0 -5 -2
-10 -4 -10 -3 0 -8 5 -11 10 -3 6 -1 10 4 10 6 0 11 -4 11 -10z m3467 -26 c-3
-3 -12 -4 -19 -1 -8 3 -5 6 6 6 11 1 17 -2 13 -5z m-1097 -14 c0 -5 -4 -10
-10 -10 -5 0 -10 5 -10 10 0 6 5 10 10 10 6 0 10 -4 10 -10z m60 6 c0 -2 -7
-6 -15 -10 -8 -3 -15 -1 -15 4 0 6 7 10 15 10 8 0 15 -2 15 -4z m-2140 -37 c0
-6 -4 -7 -10 -4 -5 3 -10 11 -10 16 0 6 5 7 10 4 6 -3 10 -11 10 -16z m2040
-25 c0 -8 -9 -14 -20 -14 -22 0 -26 10 -8 28 13 13 28 7 28 -14z m-2497 -11
c-8 -3 -13 -22 -13 -44 0 -32 -3 -39 -20 -39 -17 0 -20 7 -20 40 0 25 -5 41
-12 41 -7 1 5 5 27 8 39 7 62 3 38 -6z m-178 -13 c-3 -5 -10 -10 -16 -10 -5 0
-9 5 -9 10 0 6 7 10 16 10 8 0 12 -4 9 -10z m2725 -35 c0 -18 -31 -28 -44 -15
-8 8 -6 15 8 25 21 16 36 11 36 -10z m100 -15 c0 -13 -7 -20 -20 -20 -19 0
-19 1 -2 19 22 25 22 25 22 1z m-2734 -15 c-15 -16 -43 -19 -70 -9 -32 12 -15
24 35 24 45 0 49 -2 35 -15z m1611 -1 c-3 -3 -12 -4 -19 -1 -8 3 -5 6 6 6 11
1 17 -2 13 -5z m-800 -10 c-3 -3 -12 -4 -19 -1 -8 3 -5 6 6 6 11 1 17 -2 13
-5z m753 -14 c0 -11 -2 -20 -4 -20 -2 0 -6 9 -9 20 -3 11 -1 20 4 20 5 0 9 -9
9 -20z m905 10 c-3 -5 -10 -10 -16 -10 -5 0 -9 5 -9 10 0 6 7 10 16 10 8 0 12
-4 9 -10z m6365 -6 c0 -17 -22 -14 -28 4 -2 7 3 12 12 12 9 0 16 -7 16 -16z
m-8580 -29 c0 -23 -5 -35 -14 -35 -12 0 -12 6 -3 35 6 19 12 35 14 35 2 0 3
-16 3 -35z m1200 -25 c0 -5 -4 -10 -10 -10 -5 0 -10 5 -10 10 0 6 5 10 10 10
6 0 10 -4 10 -10z m7590 -6 c0 -2 -9 -4 -21 -4 -11 0 -18 4 -14 10 5 8 35 3
35 -6z m-8283 0 c-3 -3 -12 -4 -19 -1 -8 3 -5 6 6 6 11 1 17 -2 13 -5z m900 0
c-3 -3 -12 -4 -19 -1 -8 3 -5 6 6 6 11 1 17 -2 13 -5z m6976 -11 c-13 -2 -33
-2 -45 0 -13 2 -3 4 22 4 25 0 35 -2 23 -4z"/>
<path d="M7377 8873 c-4 -3 -7 -11 -7 -17 0 -6 5 -5 12 2 6 6 9 14 7 17 -3 3
-9 2 -12 -2z"/>
<path d="M5605 5920 c-3 -5 2 -10 12 -10 10 0 33 -9 51 -20 18 -11 34 -20 37
-20 9 0 -8 35 -23 48 -19 14 -68 16 -77 2z"/>
<path d="M5950 5850 c-21 -13 -5 -25 52 -39 76 -18 87 -15 58 13 -28 26 -87
41 -110 26z"/>
<path d="M610 920 c0 -5 7 -10 15 -10 8 0 15 5 15 10 0 6 -7 10 -15 10 -8 0
-15 -4 -15 -10z"/>
<path d="M553 882 c-9 -5 -9 -16 0 -45 7 -20 16 -37 21 -37 4 0 5 8 1 18 -18
41 -17 60 2 65 11 3 13 5 3 6 -8 0 -20 -3 -27 -7z"/>
<path d="M460 855 c-11 -14 -10 -19 8 -37 28 -28 36 -19 19 21 -12 29 -15 30
-27 16z"/>
<path d="M305 810 c-3 -5 -1 -10 4 -10 6 0 11 5 11 10 0 6 -2 10 -4 10 -3 0
-8 -4 -11 -10z"/>
<path d="M501 777 c-8 -11 -5 -19 13 -36 13 -12 27 -21 32 -20 28 5 34 -4 34
-45 0 -69 20 -102 35 -56 4 14 15 20 34 20 31 0 51 16 51 42 0 23 -35 24 -46
1 -6 -13 -10 -2 -14 37 -5 51 -7 55 -32 58 -21 2 -28 -1 -28 -13 0 -14 -4 -14
-26 4 -31 25 -38 26 -53 8z"/>
<path d="M400 760 c0 -5 18 -10 40 -10 22 0 40 5 40 10 0 6 -18 10 -40 10 -22
0 -40 -4 -40 -10z"/>
<path d="M9960 840 c0 -22 5 -40 10 -40 6 0 10 18 10 40 0 22 -4 40 -10 40 -5
0 -10 -18 -10 -40z"/>
<path d="M7862 10198 c7 -19 38 -22 38 -4 0 10 -9 16 -21 16 -12 0 -19 -5 -17
-12z"/>
<path d="M7917 10184 c-5 -29 8 -32 22 -5 8 14 7 20 -3 24 -9 4 -16 -3 -19
-19z"/>
<path d="M5400 10186 c0 -2 7 -7 16 -10 8 -3 12 -2 9 4 -6 10 -25 14 -25 6z"/>
<path d="M7810 10146 c0 -7 7 -19 15 -26 13 -11 15 -8 15 14 0 16 -5 26 -15
26 -8 0 -15 -6 -15 -14z"/>
<path d="M7980 10150 c0 -5 5 -10 10 -10 6 0 10 5 10 10 0 6 -4 10 -10 10 -5
0 -10 -4 -10 -10z"/>
<path d="M7675 10090 c-3 -5 1 -10 10 -10 9 0 13 5 10 10 -3 6 -8 10 -10 10
-2 0 -7 -4 -10 -10z"/>
<path d="M5253 10075 c-7 -8 -13 -23 -13 -35 0 -14 -7 -20 -21 -20 -15 0 -19
-4 -15 -16 3 -9 6 -18 6 -20 0 -2 7 -4 15 -4 8 0 15 5 15 10 0 6 9 10 20 10
12 0 20 7 20 18 0 9 10 22 22 27 29 13 36 35 9 30 -11 -2 -23 0 -26 6 -8 12
-18 11 -32 -6z"/>
<path d="M7760 10071 c0 -5 9 -7 20 -4 11 3 20 7 20 9 0 2 -9 4 -20 4 -11 0
-20 -4 -20 -9z"/>
<path d="M7608 9993 c7 -3 16 -2 19 1 4 3 -2 6 -13 5 -11 0 -14 -3 -6 -6z"/>
<path d="M5110 9915 c0 -5 4 -17 10 -25 7 -12 12 -12 34 0 14 7 26 17 26 22 0
11 -7 10 -30 -4 -17 -11 -22 -10 -30 2 -5 8 -10 11 -10 5z"/>
<path d="M7120 9830 c0 -5 5 -10 10 -10 6 0 10 5 10 10 0 6 -4 10 -10 10 -5 0
-10 -4 -10 -10z"/>
<path d="M7550 9785 c-5 -14 -14 -25 -20 -25 -5 0 -10 -17 -10 -37 1 -36 2
-37 15 -19 8 11 15 28 15 38 0 13 8 18 30 18 18 0 33 6 37 15 8 21 -6 33 -17
15 -8 -12 -10 -12 -16 3 -9 24 -23 21 -34 -8z"/>
<path d="M7470 9775 c0 -8 7 -15 15 -15 8 0 15 7 15 15 0 8 -7 15 -15 15 -8 0
-15 -7 -15 -15z"/>
<path d="M7182 9661 c-27 -47 -28 -61 -4 -61 13 0 23 13 32 40 19 58 0 72 -28
21z"/>
<path d="M4920 9669 c0 -5 5 -7 10 -4 6 3 10 8 10 11 0 2 -4 4 -10 4 -5 0 -10
-5 -10 -11z"/>
<path d="M7260 9668 c1 -29 15 -36 27 -12 10 21 9 24 -8 24 -10 0 -19 -6 -19
-12z"/>
<path d="M7345 9670 c3 -5 8 -10 11 -10 2 0 4 5 4 10 0 6 -5 10 -11 10 -5 0
-7 -4 -4 -10z"/>
<path d="M4880 9641 c0 -25 6 -27 13 -6 4 8 2 17 -3 20 -6 4 -10 -3 -10 -14z"/>
<path d="M4757 9535 c-5 -10 0 -15 14 -15 12 0 19 5 17 12 -6 18 -25 20 -31 3z"/>
<path d="M4694 9486 c-6 -7 -15 -22 -18 -34 -6 -17 -4 -21 8 -16 9 3 16 11 16
17 0 6 7 19 17 29 13 14 13 18 2 18 -8 -1 -19 -7 -25 -14z"/>
<path d="M7063 9483 c-36 -7 -27 -21 17 -25 33 -3 40 0 40 14 0 18 -11 20 -57
11z"/>
<path d="M4552 9346 c7 -8 15 -12 17 -11 5 6 -10 25 -20 25 -5 0 -4 -6 3 -14z"/>
<path d="M6880 9286 c0 -12 9 -16 33 -15 21 1 25 3 12 6 -11 3 -26 10 -32 15
-10 8 -13 6 -13 -6z"/>
<path d="M6770 9270 c0 -5 5 -10 10 -10 6 0 10 5 10 10 0 6 -4 10 -10 10 -5 0
-10 -4 -10 -10z"/>
<path d="M6870 9215 c-7 -9 -8 -15 -2 -15 5 0 12 7 16 15 3 8 4 15 2 15 -2 0
-9 -7 -16 -15z"/>
<path d="M6700 9210 c0 -5 5 -10 10 -10 6 0 10 5 10 10 0 6 -4 10 -10 10 -5 0
-10 -4 -10 -10z"/>
<path d="M6910 9146 c0 -17 5 -26 16 -26 10 0 14 7 12 22 -5 32 -28 35 -28 4z"/>
<path d="M4300 9031 c0 -17 18 -21 24 -6 3 9 0 15 -9 15 -8 0 -15 -4 -15 -9z"/>
<path d="M4190 8920 c0 -5 7 -10 15 -10 8 0 15 5 15 10 0 6 -7 10 -15 10 -8 0
-15 -4 -15 -10z"/>
<path d="M6971 8784 c0 -11 3 -14 6 -6 3 7 2 16 -1 19 -3 4 -6 -2 -5 -13z"/>
<path d="M6995 8755 c-4 -11 -10 -24 -13 -29 -3 -5 1 -6 9 -1 11 6 11 5 2 -5
-15 -16 -34 -4 -27 18 5 14 4 14 -4 2 -7 -9 -8 -18 -1 -26 7 -9 5 -14 -8 -17
-10 -2 -5 -3 10 -1 16 2 25 0 22 -6 -3 -6 1 -7 9 -4 9 3 13 11 10 16 -4 6 3 8
17 4 13 -3 18 -3 11 0 -10 5 -10 9 -1 20 10 12 9 13 -4 8 -11 -4 -17 1 -19 18
-4 22 -5 22 -13 3z"/>
<path d="M7051 8724 c0 -11 3 -14 6 -6 3 7 2 16 -1 19 -3 4 -6 -2 -5 -13z"/>
<path d="M6819 8603 c-13 -17 -13 -17 6 -3 11 8 22 16 24 17 2 2 0 3 -6 3 -6
0 -17 -8 -24 -17z"/>
<path d="M3703 8566 c-26 -12 -30 -26 -9 -26 13 0 43 28 35 33 -2 2 -14 -2
-26 -7z"/>
<path d="M6775 8566 c-17 -12 -17 -13 3 -11 26 2 37 11 24 19 -5 3 -17 -1 -27
-8z"/>
<path d="M6730 8499 c0 -5 5 -7 10 -4 6 3 10 8 10 11 0 2 -4 4 -10 4 -5 0 -10
-5 -10 -11z"/>
<path d="M3285 8270 c-3 -5 1 -10 10 -10 9 0 13 5 10 10 -3 6 -8 10 -10 10 -2
0 -7 -4 -10 -10z"/>
<path d="M5608 8263 c7 -3 16 -2 19 1 4 3 -2 6 -13 5 -11 0 -14 -3 -6 -6z"/>
<path d="M5655 8260 c-3 -5 -2 -10 4 -10 5 0 13 5 16 10 3 6 2 10 -4 10 -5 0
-13 -4 -16 -10z"/>
<path d="M3040 8186 c0 -8 -6 -17 -12 -20 -7 -3 -2 -4 12 -3 39 3 57 37 20 37
-11 0 -20 -6 -20 -14z"/>
<path d="M5793 8153 c-15 -5 -18 -33 -4 -33 5 0 12 -10 14 -22 3 -17 5 -14 6
10 1 34 14 42 28 17 6 -9 13 -11 23 -5 13 8 12 11 -5 24 -20 16 -40 18 -62 9z"/>
<path d="M5762 8100 c0 -14 2 -19 5 -12 2 6 2 18 0 25 -3 6 -5 1 -5 -13z"/>
<path d="M3130 8050 c-9 -6 -10 -10 -3 -10 6 0 15 5 18 10 8 12 4 12 -15 0z"/>
<path d="M5801 8001 c-8 -5 -9 -11 -3 -15 5 -3 15 1 22 9 14 16 3 20 -19 6z"/>
<path d="M2801 7984 c0 -11 3 -14 6 -6 3 7 2 16 -1 19 -3 4 -6 -2 -5 -13z"/>
<path d="M2843 7963 c9 -2 25 -2 35 0 9 3 1 5 -18 5 -19 0 -27 -2 -17 -5z"/>
<path d="M2710 7900 c-11 -8 -7 -9 15 -4 37 8 45 14 19 14 -10 0 -26 -5 -34
-10z"/>
<path d="M6826 7887 c-18 -13 -18 -14 -1 -21 11 -4 22 -1 27 6 18 29 4 37 -26
15z"/>
<path d="M6821 7794 c0 -12 7 -28 17 -35 15 -12 16 -12 6 1 -7 8 -14 24 -17
35 -4 19 -5 19 -6 -1z"/>
<path d="M6871 7774 c0 -11 3 -14 6 -6 3 7 2 16 -1 19 -3 4 -6 -2 -5 -13z"/>
<path d="M6812 7710 c9 -26 13 -30 16 -16 2 10 -3 26 -12 35 -15 15 -16 13 -4
-19z"/>
<path d="M6860 7694 c0 -8 5 -12 10 -9 6 4 8 11 5 16 -9 14 -15 11 -15 -7z"/>
<path d="M6916 7685 c-3 -8 -1 -15 4 -15 6 0 10 7 10 15 0 8 -2 15 -4 15 -2 0
-6 -7 -10 -15z"/>
<path d="M6860 7661 c0 -5 5 -13 10 -16 6 -3 10 -2 10 4 0 5 -4 13 -10 16 -5
3 -10 2 -10 -4z"/>
<path d="M6931 7624 c0 -11 3 -14 6 -6 3 7 2 16 -1 19 -3 4 -6 -2 -5 -13z"/>
<path d="M5906 7593 c9 -51 14 -54 14 -10 0 20 -5 39 -11 42 -7 5 -8 -5 -3
-32z"/>
<path d="M6800 7621 c0 -13 -68 -76 -83 -77 -24 -2 -57 -17 -57 -25 0 -15 36
-28 61 -22 13 4 33 16 45 27 25 24 59 106 44 106 -6 0 -10 -4 -10 -9z"/>
<path d="M3642 7400 c0 -14 2 -19 5 -12 2 6 2 18 0 25 -3 6 -5 1 -5 -13z"/>
<path d="M5907 7387 c-11 -29 -9 -43 4 -30 6 6 9 19 7 29 -3 18 -4 18 -11 1z"/>
<path d="M5900 7321 c0 -6 5 -13 10 -16 6 -3 10 1 10 9 0 9 -4 16 -10 16 -5 0
-10 -4 -10 -9z"/>
<path d="M5902 7190 c1 -38 5 -70 9 -70 10 0 7 130 -3 136 -4 3 -7 -27 -6 -66z"/>
<path d="M2493 7183 c-8 -3 -13 -22 -13 -44 0 -22 4 -38 8 -35 5 3 8 15 7 28
-1 13 2 26 8 29 13 9 5 27 -10 22z"/>
<path d="M2547 7184 c-3 -3 -3 -12 0 -20 3 -8 -1 -14 -10 -14 -10 0 -15 -8
-14 -20 1 -12 8 -20 19 -20 14 0 18 8 18 40 0 40 -2 45 -13 34z"/>
<path d="M2444 7155 c3 -9 0 -15 -9 -15 -9 0 -15 -10 -16 -22 0 -22 -1 -22 -8
-3 -7 16 -9 13 -13 -18 -2 -20 -2 -36 1 -34 4 2 21 10 39 17 36 16 44 35 10
25 -21 -6 -22 -5 -5 8 19 16 23 57 6 57 -6 0 -9 -7 -5 -15z"/>
<path d="M2260 7090 c0 -38 4 -50 15 -50 12 0 15 11 13 50 -4 68 -28 69 -28 0z"/>
<path d="M2338 7106 c-11 -20 -11 -20 -18 -1 -6 17 -8 16 -14 -9 -9 -35 6 -55
28 -36 9 7 14 16 11 20 -3 4 2 10 9 13 9 4 17 -1 19 -11 3 -9 5 -3 6 14 1 36
-24 43 -41 10z"/>
<path d="M2220 7070 c0 -10 -9 -24 -19 -30 -26 -14 -31 -13 -31 6 0 10 6 14
15 10 9 -3 15 0 15 10 0 10 -8 14 -22 12 -19 -2 -23 -9 -23 -36 0 -25 4 -31
15 -26 8 3 27 8 43 11 15 3 27 8 28 12 0 3 2 16 5 29 3 15 -1 22 -11 22 -8 0
-15 -9 -15 -20z"/>
<path d="M2044 7065 c-10 -8 -14 -15 -7 -15 6 0 15 5 18 10 4 6 11 7 17 4 7
-4 8 -2 4 4 -9 15 -8 15 -32 -3z"/>
<path d="M7586 7057 c3 -10 9 -15 12 -12 3 3 0 11 -7 18 -10 9 -11 8 -5 -6z"/>
<path d="M2103 7025 c-2 -36 7 -44 25 -22 10 13 -1 57 -15 57 -4 0 -9 -16 -10
-35z"/>
<path d="M2020 7017 c0 -20 6 -30 23 -36 23 -9 37 -6 37 9 0 5 -6 7 -14 4 -9
-3 -20 5 -30 23 l-15 28 -1 -28z"/>
<path d="M7605 7030 c-4 -6 16 -38 45 -72 3 -5 4 7 2 26 -3 27 -8 33 -21 28
-13 -5 -14 -3 -4 9 10 13 10 16 -3 16 -8 0 -17 -4 -19 -7z"/>
<path d="M7720 6969 c0 -5 -5 -7 -12 -3 -6 4 -8 3 -4 -4 3 -5 1 -12 -5 -14 -6
-2 -11 -22 -12 -45 -1 -22 -6 -38 -11 -35 -5 3 -6 -2 -3 -12 4 -10 7 -25 7
-34 0 -9 8 -1 17 18 10 19 42 59 73 89 30 30 40 43 22 28 -41 -33 -56 -34 -47
-4 7 22 7 22 -9 2 -17 -20 -17 -20 -11 3 4 12 4 22 1 22 -3 0 -6 -5 -6 -11z"/>
<path d="M3685 6940 c3 -5 11 -10 16 -10 6 0 7 5 4 10 -3 6 -11 10 -16 10 -6
0 -7 -4 -4 -10z"/>
<path d="M7661 6824 c0 -11 3 -14 6 -6 3 7 2 16 -1 19 -3 4 -6 -2 -5 -13z"/>
<path d="M5861 6654 c0 -11 3 -14 6 -6 3 7 2 16 -1 19 -3 4 -6 -2 -5 -13z"/>
<path d="M5856 6504 c-24 -17 -20 -36 7 -29 20 5 20 5 4 -6 -14 -8 -22 -8 -30
0 -6 6 -15 11 -20 11 -5 0 -2 -6 5 -14 8 -7 34 -16 59 -20 31 -4 38 -3 24 3
-15 7 -16 10 -4 10 14 1 18 19 10 51 -2 10 -39 6 -55 -6z"/>
<path d="M5770 6461 c12 -9 13 -11 1 -11 -8 0 -12 -2 -9 -5 3 -3 16 -1 29 4
13 5 19 10 12 10 -6 1 -20 4 -30 7 -15 5 -15 4 -3 -5z"/>
<path d="M2564 6263 c-86 -32 -184 -65 -284 -94 -132 -39 -155 -51 -168 -88
-22 -63 15 -95 87 -74 170 49 382 116 408 129 18 9 39 32 48 51 15 31 15 37 1
57 -20 31 -45 36 -92 19z m-64 -97 c0 -5 -58 -32 -87 -41 -35 -10 -28 13 9 28
31 13 78 21 78 13z m-120 -39 c0 -13 -93 -43 -117 -39 -6 2 -14 -2 -18 -8 -7
-12 -25 -13 -25 -2 0 11 51 35 58 27 3 -3 15 1 27 9 18 12 43 21 68 25 4 0 7
-5 7 -12z"/>
<path d="M1128 6163 c6 -2 18 -2 25 0 6 3 1 5 -13 5 -14 0 -19 -2 -12 -5z"/>
<path d="M5578 5758 c7 -7 12 -23 12 -36 0 -59 50 -85 72 -37 14 32 -6 57 -59
73 -27 8 -33 8 -25 0z"/>
<path d="M808 5703 c7 -3 16 -2 19 1 4 3 -2 6 -13 5 -11 0 -14 -3 -6 -6z"/>
<path d="M6339 5683 c-12 -15 -12 -16 2 -11 9 4 22 1 29 -5 9 -9 11 -8 8 7 -4
26 -22 30 -39 9z"/>
<path d="M2265 5611 c4 -8 2 -17 -6 -22 -9 -6 -10 -9 -2 -9 19 0 27 21 13 33
-10 9 -11 9 -5 -2z"/>
<path d="M532 5498 c6 -18 28 -21 28 -4 0 9 -7 16 -16 16 -9 0 -14 -5 -12 -12z"/>
<path d="M220 5110 c0 -5 5 -10 10 -10 6 0 10 5 10 10 0 6 -4 10 -10 10 -5 0
-10 -4 -10 -10z"/>
<path d="M320 5080 c0 -11 5 -20 10 -20 6 0 10 9 10 20 0 11 -4 20 -10 20 -5
0 -10 -9 -10 -20z"/>
<path d="M215 5050 c-3 -5 1 -10 9 -10 11 0 16 -9 16 -26 0 -20 4 -25 16 -20
9 3 18 6 21 6 4 0 -2 9 -12 20 -11 12 -13 20 -6 20 7 0 9 5 6 10 -3 6 -15 10
-25 10 -10 0 -22 -4 -25 -10z"/>
<path d="M188 4948 c9 -9 15 -9 24 0 9 9 7 12 -12 12 -19 0 -21 -3 -12 -12z"/>
<path d="M72 4888 c3 -8 23 -14 49 -15 45 -3 35 6 -24 21 -22 5 -28 3 -25 -6z"/>
<path d="M2490 4740 c-49 -17 -50 -18 -15 -13 41 6 112 33 85 32 -8 -1 -40 -9
-70 -19z"/>
<path d="M2408 4713 c7 -3 16 -2 19 1 4 3 -2 6 -13 5 -11 0 -14 -3 -6 -6z"/>
<path d="M2270 4695 c7 -8 24 -14 39 -14 20 1 22 2 6 6 -11 3 -24 9 -29 14
-16 15 -29 10 -16 -6z"/>
<path d="M8065 4640 c3 -5 8 -10 11 -10 2 0 4 5 4 10 0 6 -5 10 -11 10 -5 0
-7 -4 -4 -10z"/>
<path d="M5607 3969 c-9 -6 -25 -8 -35 -5 -24 8 -43 -6 -32 -23 7 -12 16 -10
54 8 25 11 46 23 46 26 0 8 -13 5 -33 -6z"/>
<path d="M4180 3927 c0 -11 95 -48 115 -44 16 2 11 7 -20 21 -45 19 -95 32
-95 23z"/>
<path d="M5500 3920 c-8 -5 -10 -10 -5 -10 6 0 17 5 25 10 8 5 11 10 5 10 -5
0 -17 -5 -25 -10z"/>
<path d="M4042 3909 c-13 -5 -28 -7 -33 -3 -5 3 -9 1 -9 -4 0 -5 26 -21 58
-35 55 -25 62 -26 115 -15 32 7 57 15 57 19 0 3 -23 16 -51 28 -55 22 -99 26
-137 10z"/>
<path d="M3883 3867 c-18 -7 -32 -16 -31 -22 2 -5 33 -22 69 -37 58 -23 72
-25 103 -16 20 6 36 15 36 19 0 4 -25 17 -55 30 -30 12 -55 26 -55 31 0 11
-28 9 -67 -5z"/>
<path d="M4340 3862 c0 -9 109 -36 116 -29 6 5 -83 37 -103 37 -7 0 -13 -3
-13 -8z"/>
<path d="M3775 3830 c-3 -6 -26 -15 -51 -21 -24 -6 -44 -14 -44 -18 0 -3 34
-21 75 -40 80 -36 114 -37 186 -7 l33 14 -56 11 c-34 7 -71 24 -94 42 -42 33
-41 33 -49 19z"/>
<path d="M4152 3822 c-18 -6 59 -40 109 -48 42 -7 109 2 109 15 0 18 -183 46
-218 33z"/>
<path d="M4515 3800 c22 -10 45 -19 52 -19 6 -1 78 -32 160 -69 81 -38 167
-77 191 -87 24 -11 41 -24 38 -31 -3 -7 13 -18 37 -27 69 -25 83 -28 107 -19
20 8 15 12 -46 36 -38 16 -80 34 -94 41 -14 7 -70 32 -125 55 -55 23 -129 55
-165 72 -72 34 -167 68 -184 67 -6 0 7 -9 29 -19z"/>
<path d="M4080 3780 c-8 -5 -28 -10 -45 -10 l-30 -1 25 -10 c23 -9 66 -6 114
8 15 4 16 7 5 14 -18 11 -50 11 -69 -1z"/>
<path d="M3563 3753 c-35 -14 -63 -28 -63 -32 0 -4 43 -21 96 -39 l95 -33 56
26 c30 15 53 28 51 30 -3 2 -135 59 -163 70 -5 2 -38 -7 -72 -22z"/>
<path d="M4348 3758 c-46 -12 -48 -22 -8 -43 38 -20 88 -19 136 1 l39 17 -40
18 c-44 20 -72 22 -127 7z"/>
<path d="M4125 3746 l-40 -12 68 -32 c61 -28 75 -31 128 -25 32 3 59 9 59 12
-1 10 -136 71 -156 70 -11 0 -37 -6 -59 -13z"/>
<path d="M3935 3726 l-50 -22 39 -7 c21 -3 47 -2 57 3 10 6 24 10 31 10 7 -1
2 -7 -12 -14 l-24 -14 39 -18 c43 -19 160 -23 176 -7 8 8 -99 56 -191 87 -8 3
-37 -5 -65 -18z"/>
<path d="M3353 3682 c-82 -27 -104 -42 -60 -42 12 0 51 -9 86 -20 44 -14 80
-19 115 -15 l51 5 -62 -21 c-35 -11 -63 -24 -63 -29 0 -4 14 -13 30 -19 24 -8
47 -6 103 9 107 28 152 44 150 55 -1 11 -229 104 -253 104 -8 0 -52 -12 -97
-27z"/>
<path d="M4497 3697 c-40 -16 -28 -30 46 -51 56 -17 72 -18 107 -7 22 6 40 16
40 21 0 5 -19 15 -42 21 -24 7 -47 16 -52 21 -13 11 -65 8 -99 -5z"/>
<path d="M3783 3670 c-24 -10 -43 -22 -43 -26 0 -6 70 2 119 13 23 6 23 7 6
19 -24 18 -32 17 -82 -6z"/>
<path d="M4302 3663 c-21 -4 -18 -8 30 -38 51 -32 55 -33 108 -23 30 6 59 14
63 18 5 4 -16 17 -47 29 -54 20 -101 24 -154 14z"/>
<path d="M3870 3639 c-30 -11 -63 -23 -72 -26 -31 -9 -20 -19 36 -33 63 -15
128 -9 189 18 l42 19 -31 16 c-53 28 -103 29 -164 6z"/>
<path d="M4670 3628 c-44 -20 -44 -21 -20 -30 81 -31 104 -34 154 -20 26 8 44
17 40 21 -8 7 -123 52 -127 50 -1 0 -22 -10 -47 -21z"/>
<path d="M4150 3621 l-35 -7 67 -34 67 -34 58 18 c53 17 56 19 38 32 -42 31
-116 40 -195 25z"/>
<path d="M3300 3610 c8 -5 20 -10 25 -10 6 0 3 5 -5 10 -8 5 -19 10 -25 10 -5
0 -3 -5 5 -10z"/>
<path d="M4084 3602 c3 -6 -9 -13 -27 -16 -17 -4 -43 -15 -55 -24 l-24 -18 54
-13 c43 -11 66 -11 111 -1 31 6 57 13 57 16 0 2 -27 18 -61 34 -34 17 -58 27
-55 22z"/>
<path d="M4488 3603 c-22 -3 -60 -31 -47 -34 24 -5 40 -9 74 -22 28 -10 56
-12 95 -7 68 9 75 5 21 -11 -42 -12 -51 -23 -28 -32 6 -3 -1 -6 -16 -6 -16 -1
-35 -8 -43 -16 -17 -16 -21 -13 62 -45 30 -12 97 7 87 23 -4 6 5 8 22 5 29 -6
115 18 115 31 0 15 -82 32 -121 26 -47 -8 -53 9 -6 20 19 4 26 9 17 12 -8 3
-47 18 -87 34 -69 28 -87 31 -145 22z"/>
<path d="M3675 3562 c-67 -24 -110 -56 -100 -72 3 -4 17 -11 31 -14 15 -4 129
-56 254 -116 125 -61 231 -110 234 -110 3 0 77 -32 163 -71 87 -40 234 -101
328 -137 174 -67 221 -75 305 -57 39 8 39 25 1 25 -18 0 -41 10 -56 25 -17 15
-44 26 -73 30 -68 9 -328 103 -632 227 -145 60 -287 116 -314 125 -28 9 -46
18 -41 19 6 1 28 5 50 9 34 6 37 8 21 17 -13 7 -35 7 -72 -1 -46 -9 -60 -8
-89 6 -19 9 -35 19 -35 22 0 3 37 5 82 5 73 -1 92 -6 163 -39 44 -20 118 -52
165 -70 246 -95 299 -116 345 -138 28 -13 79 -34 115 -47 60 -20 71 -21 123
-10 31 6 59 15 62 20 2 4 -10 14 -28 21 -17 7 -34 16 -37 19 -3 4 -18 12 -35
18 -16 6 -63 24 -103 41 -58 24 -82 30 -113 25 -32 -5 -38 -4 -34 8 4 11 -13
22 -62 42 -37 15 -94 41 -126 57 -87 45 -209 79 -265 74 -26 -3 -41 -3 -34 1
22 11 13 23 -35 44 -69 30 -81 31 -158 2z"/>
<path d="M4838 3563 c-21 -8 -38 -18 -38 -22 0 -11 92 -41 126 -41 42 0 94 11
94 19 0 6 -28 17 -140 58 -3 1 -22 -5 -42 -14z"/>
<path d="M4340 3563 c-71 -27 -69 -24 -25 -43 22 -10 50 -19 63 -19 13 -1 20
-5 17 -11 -16 -26 103 -32 133 -8 18 15 8 22 -78 57 -77 32 -84 33 -110 24z"/>
<path d="M5116 3529 l-39 -21 89 -35 c49 -20 101 -36 116 -36 31 0 88 22 88
33 0 14 -93 28 -135 21 -22 -4 -53 -3 -69 2 l-29 10 34 18 c19 10 29 18 22 19
-6 0 -17 2 -25 5 -7 2 -31 -5 -52 -16z"/>
<path d="M4162 3519 c-67 -13 -69 -20 -18 -46 43 -22 52 -23 99 -13 82 17 89
26 37 49 -49 22 -55 23 -118 10z"/>
<path d="M3510 3516 c0 -2 9 -6 20 -9 11 -3 18 -1 14 4 -5 9 -34 13 -34 5z"/>
<path d="M4972 3489 c-18 -5 -35 -16 -38 -24 -5 -12 -11 -12 -43 1 -35 14 -41
13 -87 -6 l-49 -22 80 -25 c74 -23 81 -24 105 -9 14 8 24 20 23 26 -4 15 1 13
78 -21 70 -30 70 -30 120 -14 54 18 61 31 27 44 -13 5 -45 19 -73 32 -59 26
-98 31 -143 18z"/>
<path d="M4293 3459 c-18 -5 -34 -13 -37 -18 -8 -12 132 -74 155 -68 10 3 17
2 14 -2 -6 -11 64 -31 106 -31 41 0 85 22 81 40 -3 14 1 13 105 -24 l72 -26
48 19 c26 10 47 22 46 27 -1 4 -36 18 -79 30 -72 21 -78 21 -120 6 -40 -15
-47 -15 -97 1 -67 21 -96 22 -103 2 -4 -9 -16 -21 -28 -27 -20 -11 -20 -10 -3
9 25 29 22 33 -27 33 -25 0 -47 4 -50 8 -3 5 9 7 27 5 l32 -4 -34 16 c-37 17
-61 18 -108 4z"/>
<path d="M5391 3434 c-12 -9 -34 -19 -49 -23 -24 -7 -21 -9 34 -29 59 -22 59
-22 114 -4 l55 19 -40 20 c-61 31 -88 35 -114 17z"/>
<path d="M5183 3387 c-24 -11 -43 -24 -43 -27 0 -4 23 -17 50 -30 52 -24 64
-24 145 4 11 4 2 -3 -20 -15 l-40 -22 44 -19 c24 -10 54 -21 68 -24 26 -7 113
22 113 37 0 15 -242 121 -269 118 -3 0 -25 -10 -48 -22z"/>
<path d="M4970 3395 c0 -7 111 -37 117 -31 3 3 -7 11 -23 17 -31 13 -94 23
-94 14z"/>
<path d="M5805 3388 c31 -20 180 -85 290 -128 55 -21 117 -46 138 -54 20 -9
37 -14 37 -11 0 8 -139 70 -224 101 -39 14 -102 40 -141 58 -38 19 -81 37 -95
40 -23 7 -24 6 -5 -6z"/>
<path d="M4878 3353 c-45 -18 -49 -32 -10 -31 15 1 41 -6 57 -14 28 -15 34
-14 83 4 28 11 52 23 52 28 0 7 -113 31 -136 29 -5 -1 -26 -8 -46 -16z"/>
<path d="M5525 3356 l-59 -11 79 -32 c118 -46 136 -48 192 -23 l48 22 -50 18
c-27 10 -60 19 -72 19 -13 1 -23 6 -23 11 0 12 -36 11 -115 -4z"/>
<path d="M4610 3335 c-14 -8 -34 -15 -45 -16 -31 -1 95 -58 131 -59 18 0 52
-11 75 -25 50 -28 71 -30 186 -14 89 13 98 23 30 34 -23 4 -61 16 -84 26 -23
11 -63 19 -88 19 -26 0 -44 4 -40 9 3 6 -11 15 -32 21 -70 19 -107 21 -133 5z"/>
<path d="M5031 3309 c-29 -13 -41 -23 -34 -30 18 -18 116 -49 142 -44 14 3 20
2 14 -1 -23 -10 -14 -21 34 -39 33 -13 48 -15 51 -7 2 7 14 12 27 12 12 0 40
7 61 16 l39 17 -40 18 c-28 13 -52 16 -80 12 -36 -6 -39 -5 -27 10 12 14 8 18
-30 37 -25 12 -35 14 -24 5 11 -8 24 -15 30 -15 5 0 7 -3 4 -6 -4 -3 -19 1
-35 9 -49 25 -85 27 -132 6z m196 -105 c-5 -5 -57 13 -57 20 0 3 14 0 31 -6
16 -6 28 -12 26 -14z"/>
<path d="M5480 3260 l-55 -28 60 -27 c41 -18 70 -24 90 -21 30 6 100 44 94 51
-2 2 -33 14 -69 28 l-66 24 -54 -27z"/>
<path d="M5790 3274 c-25 -9 -49 -19 -53 -24 -5 -4 19 -17 52 -30 64 -23 93
-21 142 14 20 13 18 15 -36 35 -30 12 -57 21 -58 21 -1 -1 -22 -8 -47 -16z"/>
<path d="M5936 3209 c-21 -11 -34 -24 -30 -29 5 -4 35 -15 66 -25 55 -17 69
-35 27 -35 -25 0 -259 -92 -259 -102 0 -4 26 -16 57 -28 32 -12 63 -26 69 -31
13 -11 71 8 255 84 74 31 155 63 182 73 26 9 47 20 47 24 0 4 -12 12 -26 19
-28 12 -83 2 -137 -26 -23 -12 -26 -17 -16 -29 9 -11 8 -14 -7 -14 -11 1 -32
6 -47 13 l-28 12 62 25 62 24 -104 33 c-57 18 -111 32 -119 32 -8 0 -32 -9
-54 -20z"/>
<path d="M4961 3210 c-18 -4 -40 -15 -48 -23 -13 -12 -10 -16 24 -29 21 -9 66
-19 101 -23 34 -4 64 -11 67 -15 3 -4 -17 -13 -45 -20 -46 -11 -53 -10 -107
15 -31 15 -68 28 -81 28 -14 0 -53 12 -87 28 -61 28 -64 28 -104 12 -23 -9
-41 -20 -41 -25 0 -10 108 -61 165 -78 22 -7 90 -36 150 -66 l110 -54 -87 3
c-53 1 -88 -2 -89 -8 -1 -5 25 -21 57 -34 33 -13 99 -41 148 -63 49 -21 95
-38 104 -38 8 0 29 -9 46 -19 45 -28 95 -35 135 -18 l34 14 -97 47 c-53 25
-99 46 -102 46 -3 0 -19 -9 -34 -20 -16 -11 -35 -17 -44 -14 -15 6 -15 8 1 19
17 12 16 14 -12 25 -16 6 -47 9 -67 6 -21 -4 -38 -4 -38 -2 0 3 21 14 47 26
37 16 64 20 115 18 38 -2 68 -6 68 -10 0 -5 -7 -8 -15 -8 -39 0 -5 -26 100
-76 125 -61 133 -61 222 -22 l45 20 -63 23 c-35 13 -104 40 -154 61 -62 25
-107 37 -147 39 -35 1 -67 8 -84 20 l-28 18 22 10 c28 13 28 27 0 27 -13 1
-36 7 -53 15 l-30 15 40 -7 c22 -4 62 -7 88 -7 30 1 43 -2 35 -7 -8 -6 -1 -9
22 -10 26 0 30 -2 16 -8 -18 -7 -17 -9 11 -29 16 -11 53 -30 81 -41 l51 -21
65 20 c36 11 79 26 96 34 l32 13 -104 39 c-86 32 -98 40 -72 42 18 2 65 -10
110 -29 92 -36 101 -37 179 -15 l58 17 -79 29 c-43 15 -136 47 -206 71 l-126
43 -56 -19 c-31 -11 -55 -24 -53 -30 2 -5 26 -18 53 -29 92 -35 91 -35 54 -31
-37 3 -102 25 -152 51 -28 15 -73 14 -133 -3 -31 -8 -8 10 28 23 l32 12 -37
16 c-40 17 -82 19 -137 6z"/>
<path d="M5645 3193 l-49 -25 36 -19 c20 -10 70 -28 111 -39 71 -20 78 -20
124 -5 55 18 80 32 72 40 -11 11 -202 75 -223 75 -11 -1 -43 -13 -71 -27z"/>
<path d="M5565 2979 c-55 -16 -107 -32 -115 -35 -9 -3 23 -22 77 -46 l92 -40
123 43 c108 38 119 44 93 50 -17 4 -56 18 -88 33 -32 14 -63 26 -70 25 -7 0
-57 -14 -112 -30z"/>
<path d="M3478 2833 c7 -3 16 -2 19 1 4 3 -2 6 -13 5 -11 0 -14 -3 -6 -6z"/>
<path d="M3577 2819 c7 -7 15 -10 18 -7 3 3 -2 9 -12 12 -14 6 -15 5 -6 -5z"/>
<path d="M3560 2790 c0 -5 5 -10 11 -10 5 0 7 5 4 10 -3 6 -8 10 -11 10 -2 0
-4 -4 -4 -10z"/>
<path d="M3600 2776 c0 -2 7 -7 16 -10 8 -3 12 -2 9 4 -6 10 -25 14 -25 6z"/>
<path d="M3638 2733 c7 -3 16 -2 19 1 4 3 -2 6 -13 5 -11 0 -14 -3 -6 -6z"/>
<path d="M3700 2730 c12 -7 8 -10 -15 -11 -16 0 -25 -3 -18 -5 7 -3 9 -12 6
-20 -3 -9 2 -14 16 -14 12 0 21 -3 21 -8 0 -4 15 -13 33 -21 17 -7 57 -26 88
-42 31 -16 67 -29 79 -29 12 0 29 -4 39 -10 25 -13 73 -21 66 -10 -3 5 2 15
10 23 17 17 20 31 5 22 -5 -3 -7 0 -4 8 7 19 -119 81 -147 72 -14 -5 -19 -1
-19 12 0 15 -2 16 -10 3 -8 -13 -10 -13 -10 1 0 13 -11 16 -62 13 -35 -1 -57
0 -50 3 18 7 4 23 -21 23 -18 0 -19 -2 -7 -10z m221 -68 c-7 -2 -18 1 -23 6
-8 8 -4 9 13 5 13 -4 18 -8 10 -11z"/>
<path d="M2185 2310 c-3 -5 -1 -10 4 -10 6 0 11 5 11 10 0 6 -2 10 -4 10 -3 0
-8 -4 -11 -10z"/>
<path d="M2180 2281 c0 -5 7 -11 14 -14 10 -4 13 -1 9 9 -6 15 -23 19 -23 5z"/>
<path d="M2070 2269 c0 -5 5 -7 10 -4 6 3 10 8 10 11 0 2 -4 4 -10 4 -5 0 -10
-5 -10 -11z"/>
<path d="M2260 2240 c0 -5 10 -10 23 -10 18 0 19 2 7 10 -19 13 -30 13 -30 0z"/>
<path d="M2138 2223 c7 -3 16 -2 19 1 4 3 -2 6 -13 5 -11 0 -14 -3 -6 -6z"/>
<path d="M2325 2037 c-14 -11 -15 -16 -5 -22 9 -6 11 -4 5 5 -6 9 -1 10 16 5
17 -4 20 -3 10 3 -11 8 -11 10 0 15 8 3 9 6 3 6 -5 1 -18 -5 -29 -12z"/>
<path d="M2470 2026 c0 -2 8 -10 18 -17 15 -13 16 -12 3 4 -13 16 -21 21 -21
13z"/>
<path d="M2198 2003 c7 -3 16 -2 19 1 4 3 -2 6 -13 5 -11 0 -14 -3 -6 -6z"/>
<path d="M2670 2000 c-12 -8 -12 -10 3 -16 9 -3 14 -10 11 -15 -3 -5 2 -6 10
-3 9 3 16 2 16 -4 0 -6 10 -8 21 -5 19 5 19 7 5 15 -9 5 -14 13 -11 19 4 5 2
9 -4 9 -5 0 -15 2 -23 5 -7 3 -20 1 -28 -5z m35 -10 c3 -5 2 -10 -4 -10 -5 0
-13 5 -16 10 -3 6 -2 10 4 10 5 0 13 -4 16 -10z"/>
<path d="M2577 1929 c7 -7 15 -10 18 -7 3 3 -2 9 -12 12 -14 6 -15 5 -6 -5z"/>
<path d="M2860 1910 c-13 -9 -13 -10 0 -10 12 0 12 -2 2 -9 -11 -7 -10 -9 3
-14 9 -4 13 -3 10 2 -3 5 3 12 12 14 17 4 17 5 0 6 -10 0 -15 6 -12 11 8 12 4
12 -15 0z"/>
<path d="M10160 1886 c0 -9 7 -16 16 -16 17 0 14 22 -4 28 -7 2 -12 -3 -12
-12z"/>
<path d="M2627 1853 c-8 -13 16 -23 67 -28 24 -2 33 1 33 12 0 12 -10 14 -43
10 -26 -3 -45 0 -47 6 -2 8 -5 8 -10 0z"/>
<path d="M10160 1756 c0 -20 -4 -36 -10 -36 -5 0 -10 -9 -10 -20 0 -11 5 -20
10 -20 6 0 10 -9 10 -20 0 -21 20 -29 21 -7 4 97 2 131 -9 135 -8 2 -12 -9
-12 -32z"/>
<path d="M2810 1753 c0 -3 57 -33 65 -33 3 0 5 8 5 18 0 13 -8 17 -35 18 -19
0 -35 -1 -35 -3z"/>
<path d="M2960 1690 c0 -5 14 -10 30 -10 17 0 33 0 37 -1 4 0 9 4 11 10 2 7
-12 11 -37 11 -23 0 -41 -4 -41 -10z"/>
<path d="M3080 1650 c-8 -5 -10 -10 -5 -10 6 0 17 5 25 10 8 5 11 10 5 10 -5
0 -17 -5 -25 -10z"/>
<path d="M3040 1629 c0 -5 9 -9 20 -9 11 0 20 2 20 4 0 2 -9 6 -20 9 -11 3
-20 1 -20 -4z"/>
<path d="M1313 1623 c-22 -8 -14 -19 17 -21 21 -2 30 2 30 13 0 15 -22 19 -47
8z"/>
<path d="M2940 1610 c0 -5 9 -10 21 -10 11 0 17 5 14 10 -3 6 -13 10 -21 10
-8 0 -14 -4 -14 -10z"/>
<path d="M1168 1593 c6 -2 18 -2 25 0 6 3 1 5 -13 5 -14 0 -19 -2 -12 -5z"/>
<path d="M1820 1591 c0 -18 18 -21 30 -6 10 13 9 15 -9 15 -11 0 -21 -4 -21
-9z"/>
<path d="M3040 1580 c0 -5 10 -10 23 -10 18 0 19 2 7 10 -19 13 -30 13 -30 0z"/>
<path d="M1540 1554 c0 -11 29 -34 44 -34 9 0 16 -4 16 -8 0 -5 35 -8 78 -8
72 1 77 2 80 24 4 25 -25 32 -34 7 -9 -23 -71 -20 -84 5 -8 15 -21 20 -55 20
-25 0 -45 -3 -45 -6z"/>
<path d="M1854 1548 c3 -7 9 -21 12 -30 4 -10 11 -18 16 -18 5 0 16 -7 24 -15
9 -8 33 -15 55 -15 28 0 39 -4 39 -15 0 -11 -12 -15 -50 -15 -27 0 -50 -4 -50
-10 0 -6 37 -10 90 -10 l89 0 -17 30 c-9 16 -22 30 -27 30 -6 0 -17 9 -25 20
-8 12 -26 20 -42 20 -30 0 -35 9 -16 28 9 9 -1 12 -46 12 -43 0 -56 -3 -52
-12z m66 -18 c0 -5 -5 -10 -11 -10 -5 0 -7 5 -4 10 3 6 8 10 11 10 2 0 4 -4 4
-10z"/>
<path d="M3090 1540 c19 -13 30 -13 30 0 0 6 -10 10 -22 10 -19 0 -20 -2 -8
-10z"/>
<path d="M885 1471 c-6 -10 25 -31 44 -31 8 0 7 7 -1 20 -14 21 -33 26 -43 11z"/>
<path d="M736 1461 c-4 -7 -5 -15 -2 -18 9 -9 19 4 14 18 -4 11 -6 11 -12 0z"/>
<path d="M1395 1450 c-3 -5 1 -10 9 -10 9 0 16 5 16 10 0 6 -4 10 -9 10 -6 0
-13 -4 -16 -10z"/>
<path d="M2385 1450 c-3 -5 -1 -10 4 -10 6 0 11 5 11 10 0 6 -2 10 -4 10 -3 0
-8 -4 -11 -10z"/>
<path d="M3358 1438 c-23 -23 -67 -31 -79 -15 -3 5 -25 11 -48 14 -40 5 -45 3
-81 -36 -21 -22 -43 -41 -49 -41 -6 0 -11 -4 -11 -10 0 -5 25 -10 55 -10 41 0
55 4 55 14 0 12 11 13 56 9 47 -5 58 -3 66 11 7 13 13 15 24 6 11 -10 11 -14
-1 -26 -7 -8 -23 -14 -35 -14 -20 0 -50 -21 -50 -34 0 -3 23 -6 50 -6 28 0 50
5 50 10 0 14 37 12 43 -2 3 -10 9 -10 26 0 25 15 51 16 51 2 0 -5 9 -10 20
-10 11 0 20 5 20 10 0 6 16 10 36 10 25 0 41 7 54 23 21 25 10 48 -18 40 -10
-2 -28 0 -41 5 -19 7 -29 4 -47 -15 -13 -13 -33 -23 -46 -22 -13 0 -17 3 -10
6 8 3 10 9 3 16 -5 7 -13 28 -18 47 -11 44 -42 51 -75 18z m9 -20 c-3 -8 -6
-5 -6 6 -1 11 2 17 5 13 3 -3 4 -12 1 -19z m-133 -9 c-8 -14 -34 -10 -34 5 0
9 7 12 20 9 11 -3 17 -9 14 -14z m46 -23 c0 -9 -7 -12 -20 -9 -11 3 -17 9 -14
14 8 14 34 10 34 -5z m146 -40 c18 -19 18 -26 -2 -26 -18 0 -46 25 -37 34 10
10 23 7 39 -8z m174 4 c0 -5 -15 -10 -34 -10 -19 0 -42 -3 -52 -7 -16 -6 -17
-5 -4 10 16 18 90 24 90 7z"/>
<path d="M968 1443 c6 -2 18 -2 25 0 6 3 1 5 -13 5 -14 0 -19 -2 -12 -5z"/>
<path d="M1778 1443 c-10 -2 -18 -9 -18 -14 0 -14 20 -11 36 6 16 15 13 16
-18 8z"/>
<path d="M210 1422 l-35 -16 30 -4 c16 -2 31 1 33 7 2 6 10 11 18 11 8 0 14 5
14 10 0 14 -19 11 -60 -8z"/>
<path d="M460 1428 c0 -7 7 -21 14 -30 12 -16 15 -15 41 12 27 28 27 30 8 30
-12 0 -24 -6 -27 -12 -5 -10 -7 -10 -12 0 -3 6 -10 12 -15 12 -5 0 -9 -6 -9
-12z"/>
<path d="M830 1425 c0 -8 5 -15 10 -15 6 0 10 7 10 15 0 8 -4 15 -10 15 -5 0
-10 -7 -10 -15z"/>
<path d="M1330 1436 c0 -2 7 -9 15 -16 12 -10 15 -10 15 4 0 9 -7 16 -15 16
-8 0 -15 -2 -15 -4z"/>
<path d="M3058 1411 c-24 -23 -23 -41 2 -41 23 0 60 29 60 47 0 19 -42 15 -62
-6z"/>
<path d="M654 1406 c-18 -14 -18 -15 -1 -22 22 -8 46 11 31 26 -7 7 -17 5 -30
-4z"/>
<path d="M1094 1408 c-4 -5 -1 -15 6 -21 10 -9 14 -9 17 1 3 7 22 12 46 12 52
0 45 6 -16 12 -26 3 -50 1 -53 -4z"/>
<path d="M2167 1414 c-17 -17 -5 -34 24 -34 24 0 30 4 27 18 -3 17 -38 29 -51
16z"/>
<path d="M355 1393 c-39 -21 -45 -31 -44 -73 1 -48 13 -78 24 -60 5 9 4 15 -3
18 -27 9 -9 22 28 22 22 0 40 4 40 9 0 5 10 11 21 14 15 4 20 11 16 21 -4 10
-1 16 8 16 20 0 19 29 -1 37 -11 4 -22 -1 -30 -12 -13 -18 -14 -18 -14 3 0 26
-5 26 -45 5z"/>
<path d="M170 1330 c0 -23 4 -30 20 -30 16 0 20 7 20 30 0 23 -4 30 -20 30
-16 0 -20 -7 -20 -30z"/>
<path d="M3680 1350 c0 -12 17 -12 45 0 17 7 15 9 -12 9 -18 1 -33 -3 -33 -9z"/>
<path d="M3811 1344 c0 -11 3 -14 6 -6 3 7 2 16 -1 19 -3 4 -6 -2 -5 -13z"/>
<path d="M960 1319 c0 -26 2 -28 26 -19 36 14 54 12 54 -5 0 -8 7 -15 15 -15
30 0 -17 46 -57 57 -37 10 -38 10 -38 -18z"/>
<path d="M835 1330 c-3 -5 -1 -10 4 -10 6 0 11 5 11 10 0 6 -2 10 -4 10 -3 0
-8 -4 -11 -10z"/>
<path d="M2985 1320 c-10 -11 -24 -20 -32 -20 -7 0 -13 -4 -13 -10 0 -13 23
-13 55 2 14 6 25 19 25 30 0 24 -12 23 -35 -2z"/>
<path d="M1580 1320 c0 -5 5 -10 10 -10 6 0 10 5 10 10 0 6 -4 10 -10 10 -5 0
-10 -4 -10 -10z"/>
<path d="M1860 1315 c0 -8 9 -15 20 -15 11 0 20 7 20 15 0 8 -9 15 -20 15 -11
0 -20 -7 -20 -15z"/>
<path d="M3090 1308 c0 -7 3 -23 6 -35 7 -25 24 -31 24 -9 0 9 15 15 44 17 32
3 42 1 39 -8 -3 -8 3 -13 16 -13 12 0 21 5 21 10 0 6 -6 10 -12 10 -9 0 -8 4
2 10 12 8 11 10 -7 10 -13 0 -23 5 -23 10 0 6 -25 10 -55 10 -37 0 -55 -4 -55
-12z"/>
<path d="M704 1295 c26 -19 56 -19 56 0 0 11 -11 15 -37 15 -36 -1 -37 -2 -19
-15z"/>
<path d="M800 1290 c0 -5 5 -10 10 -10 6 0 10 5 10 10 0 6 -4 10 -10 10 -5 0
-10 -4 -10 -10z"/>
<path d="M2565 1290 c3 -5 8 -10 11 -10 2 0 4 5 4 10 0 6 -5 10 -11 10 -5 0
-7 -4 -4 -10z"/>
<path d="M76 1265 c4 -8 12 -15 19 -15 7 0 18 7 25 15 11 13 8 15 -18 15 -24
0 -30 -4 -26 -15z"/>
<path d="M1778 1273 c12 -2 32 -2 45 0 12 2 2 4 -23 4 -25 0 -35 -2 -22 -4z"/>
<path d="M250 1245 c-12 -15 -11 -16 16 -13 16 1 28 8 27 13 -3 17 -29 17 -43
0z"/>
<path d="M2240 1235 c0 -8 7 -15 15 -15 8 0 15 7 15 15 0 8 -7 15 -15 15 -8 0
-15 -7 -15 -15z"/>
<path d="M2678 1243 c-14 -3 -18 -15 -18 -49 0 -42 1 -44 30 -44 18 0 30 -5
30 -13 0 -9 22 -12 78 -13 42 0 79 3 82 7 3 3 19 11 35 17 l30 10 -32 1 c-18
1 -33 6 -33 11 0 6 -16 10 -36 10 -21 0 -33 4 -29 10 3 6 1 10 -4 10 -6 0 -11
-4 -11 -9 0 -5 -11 -12 -24 -15 -13 -3 -31 -9 -40 -12 -12 -4 -16 0 -16 15 0
12 -6 21 -15 21 -18 0 -15 20 5 37 13 11 13 12 0 12 -8 -1 -23 -3 -32 -6z"/>
<path d="M3245 1241 c-3 -6 4 -15 15 -21 17 -9 20 -8 20 10 0 20 -24 28 -35
11z"/>
<path d="M2860 1230 c0 -5 5 -10 10 -10 6 0 10 5 10 10 0 6 -4 10 -10 10 -5 0
-10 -4 -10 -10z"/>
<path d="M960 1185 c0 -8 7 -15 15 -15 8 0 15 7 15 15 0 8 -7 15 -15 15 -8 0
-15 -7 -15 -15z"/>
<path d="M1840 1182 c0 -18 34 -45 44 -35 3 4 6 17 6 30 0 18 -5 23 -25 23
-17 0 -25 -5 -25 -18z"/>
<path d="M1991 1168 c-2 -63 20 -88 48 -54 14 17 5 44 -19 51 -10 3 -21 14
-23 23 -3 9 -5 0 -6 -20z"/>
<path d="M2978 1163 c12 -2 32 -2 45 0 12 2 2 4 -23 4 -25 0 -35 -2 -22 -4z"/>
<path d="M3786 1163 c-10 -3 -28 -13 -38 -23 -17 -15 -17 -18 -4 -23 10 -4 16
-1 16 8 0 11 11 15 40 15 29 0 40 4 40 15 0 15 -17 17 -54 8z"/>
<path d="M10173 1143 c-18 -7 -16 -23 2 -23 8 0 15 -7 15 -15 0 -8 5 -15 10
-15 11 0 12 6 4 38 -6 23 -10 24 -31 15z"/>
<path d="M3680 1120 c0 -5 5 -10 11 -10 5 0 7 5 4 10 -3 6 -8 10 -11 10 -2 0
-4 -4 -4 -10z"/>
<path d="M2990 1105 c0 -8 5 -15 10 -15 6 0 10 7 10 15 0 8 -4 15 -10 15 -5 0
-10 -7 -10 -15z"/>
<path d="M3700 1075 c-7 -8 -8 -15 -2 -15 5 0 15 7 22 15 7 8 8 15 2 15 -5 0
-15 -7 -22 -15z"/>
<path d="M3640 1070 c-12 -8 -9 -10 13 -10 15 0 27 5 27 10 0 13 -20 13 -40 0z"/>
<path d="M1840 1040 c0 -5 5 -10 10 -10 6 0 10 5 10 10 0 6 -4 10 -10 10 -5 0
-10 -4 -10 -10z"/>
<path d="M9810 556 c0 -2 7 -9 15 -16 12 -10 15 -10 15 4 0 9 -7 16 -15 16 -8
0 -15 -2 -15 -4z"/>
<path d="M9660 495 c-10 -12 -10 -15 4 -15 9 0 16 7 16 15 0 8 -2 15 -4 15 -2
0 -9 -7 -16 -15z"/>
<path d="M9760 480 c0 -32 1 -33 17 -17 16 16 16 18 0 34 -16 16 -17 15 -17
-17z"/>
<path d="M9620 470 c0 -5 5 -10 10 -10 6 0 10 5 10 10 0 6 -4 10 -10 10 -5 0
-10 -4 -10 -10z"/>
<path d="M9698 133 c12 -2 32 -2 45 0 12 2 2 4 -23 4 -25 0 -35 -2 -22 -4z"/>
<path d="M1671 14 c0 -11 3 -14 6 -6 3 7 2 16 -1 19 -3 4 -6 -2 -5 -13z"/>
</g>
</svg>
